<svg xmlns="http://www.w3.org/2000/svg" viewBox="0 0 860 1120" data-order="2008">
  <defs>
    <pattern id="schatch" width="6" height="6" patternUnits="userSpaceOnUse" patternTransform="rotate(45)">
      <rect width="6" height="6" fill="#f8f4eb"/>
      <line x1="0" y1="0" x2="0" y2="6" stroke="rgba(41,36,27,0.45)" stroke-width="1.4"/>
    </pattern>
  </defs>
  <g id="seats">
    <path data-n="1" fill="#f8f4eb" stroke="none" d="M620.1 158.6L621.9 156.4L620.4 155.9L622.5 154.6L619.5 151.5L620.6 148.5L620.1 143.8L612.4 141.6L612.0 138.7L604.5 132.0L602.8 124.3L606.2 122.3L607.6 122.8L614.4 118.3L615.9 121.3L615.3 122.8L618.8 128.8L620.8 128.8L625.6 133.4L627.2 132.5L626.8 131.1L637.9 125.8L640.9 130.9L639.6 132.8L640.9 133.1L642.9 138.8L644.2 139.1L642.6 141.8L646.5 144.1L648.1 150.3L652.3 150.2L653.8 151.8L653.3 153.1L656.0 149.8L658.0 149.5L659.0 150.8L659.8 154.3L658.4 158.1L655.2 160.4L659.7 162.0L659.4 165.6L660.6 166.9L660.1 168.5L662.4 170.2L666.0 169.5L665.7 166.7L667.3 165.9L669.1 168.1L678.2 169.3L683.4 173.1L682.6 175.3L685.4 174.7L689.0 180.1L695.1 184.3L693.3 185.2L695.5 188.5L694.2 193.5L697.5 197.8L695.9 203.1L696.8 207.2L694.3 208.6L694.8 209.6L693.6 211.1L690.8 213.3L688.9 213.1L687.6 215.3L686.3 213.6L680.8 212.0L676.8 214.2L665.1 199.4L664.1 198.4L663.0 199.6L661.5 199.5L662.7 190.3L657.8 188.6L658.3 187.4L653.2 187.9L651.8 186.1L650.5 188.5L648.1 188.5L646.2 186.1L643.5 189.4L646.6 179.4L642.9 178.5L633.8 184.6L629.6 184.5L629.3 183.8L633.6 182.7L633.6 180.9L627.8 180.8L631.4 179.3L631.9 177.8L627.2 177.7L633.2 169.2L630.9 166.5L627.9 167.6L625.8 167.0L620.1 158.6Z"/><path data-n="2" fill="#f8f4eb" stroke="none" d="M663.0 199.6L663.7 203.6L659.2 206.3L663.0 210.0L662.9 212.2L656.8 215.9L652.9 212.8L648.1 214.9L644.1 222.2L639.0 227.6L635.9 227.0L635.4 224.8L631.5 223.7L629.2 221.0L629.3 220.2L633.7 222.4L636.4 219.2L636.6 217.9L634.6 216.4L637.1 211.0L634.9 209.0L637.7 208.1L638.5 204.0L635.2 203.5L635.3 200.3L631.4 199.1L631.6 197.4L629.4 195.0L625.6 195.6L626.8 185.3L621.5 191.5L619.4 190.8L620.1 188.8L617.7 189.6L616.5 188.6L615.7 185.4L615.3 182.3L620.4 175.3L619.0 175.2L620.4 173.8L620.3 172.1L616.5 169.7L617.9 165.5L618.0 161.9L620.1 158.6L625.8 167.0L627.9 167.6L630.9 166.5L633.2 169.2L627.2 177.7L631.9 177.8L631.4 179.3L627.8 180.8L633.6 180.9L633.6 182.7L629.3 183.8L629.6 184.5L633.8 184.6L642.9 178.5L646.6 179.4L643.5 189.4L646.2 186.1L648.1 188.5L650.5 188.5L651.8 186.1L653.2 187.9L658.3 187.4L657.8 188.6L662.7 190.3L661.5 199.5L663.0 199.6Z"/><path data-n="3" fill="#f8f4eb" stroke="none" d="M659.2 206.3L663.7 203.6L663.0 199.6L664.1 198.4L665.1 199.4L676.8 214.2L680.8 212.0L686.3 213.6L687.6 215.3L684.4 217.1L687.9 222.6L690.5 224.5L694.6 224.8L701.6 227.7L705.8 234.7L703.2 239.9L701.4 239.3L698.0 245.1L696.5 245.6L696.5 249.5L695.4 249.9L696.7 254.0L695.7 255.2L697.4 259.9L699.6 261.9L698.9 265.2L699.8 265.7L698.3 267.7L698.2 270.9L696.2 269.4L693.7 271.6L693.8 273.0L691.1 274.2L686.8 272.9L685.8 273.9L686.8 275.8L684.9 276.1L685.6 278.1L682.3 277.5L677.4 281.4L676.3 277.7L672.3 274.8L671.0 276.5L668.7 276.6L665.4 279.0L661.9 274.6L658.5 273.8L657.5 271.8L654.8 273.8L649.7 270.3L647.8 273.7L645.4 274.4L644.9 277.5L640.1 282.6L640.0 285.9L637.6 285.9L634.1 288.9L629.7 285.6L627.7 281.0L631.8 276.4L632.3 271.8L636.3 270.7L642.2 262.7L640.1 260.6L635.3 260.9L636.9 259.2L635.6 255.0L636.4 253.7L631.8 250.8L633.7 249.2L632.1 247.9L635.7 242.5L632.0 238.0L635.0 235.6L636.9 236.9L639.9 233.8L639.2 232.1L640.1 228.0L639.0 227.6L644.1 222.2L648.1 214.9L652.9 212.8L656.8 215.9L662.9 212.2L663.0 210.0L659.2 206.3Z"/><path data-n="5" fill="#f8f4eb" stroke="none" d="M570.5 330.6L570.7 333.6L572.2 334.4L569.9 338.9L571.9 339.8L571.3 342.5L566.5 345.6L565.2 349.2L562.7 348.6L559.9 351.0L558.7 349.8L561.3 346.7L558.4 346.3L555.9 341.7L558.6 339.1L561.6 338.6L567.5 331.1L570.6 329.1L570.5 330.6ZM602.6 249.3L605.6 251.5L603.1 254.0L606.0 256.7L608.5 256.4L606.7 258.3L608.5 261.5L607.6 264.7L610.8 267.4L608.7 269.5L609.4 281.1L610.4 281.9L609.3 283.2L612.7 283.4L617.6 289.3L617.6 290.8L615.2 290.3L614.9 291.1L612.4 289.4L609.7 291.5L604.8 290.4L600.1 295.7L600.8 299.1L594.3 302.9L593.9 309.2L587.8 313.1L585.8 316.7L581.9 317.9L579.4 323.3L578.1 323.5L574.8 327.6L572.0 328.4L569.4 323.2L573.3 321.6L575.2 318.9L573.5 316.8L574.6 314.1L571.1 312.6L567.1 313.2L566.1 312.5L565.5 311.1L568.2 307.5L562.6 303.8L562.8 301.0L560.0 300.0L553.3 305.4L552.3 307.4L548.9 307.8L551.0 306.9L552.7 302.8L552.1 297.9L556.0 298.3L558.2 296.1L560.3 298.2L562.3 296.1L564.1 296.5L565.4 295.5L567.6 297.4L570.3 290.8L571.0 292.2L572.0 291.6L577.5 286.3L580.2 287.9L582.9 280.6L584.6 282.3L585.7 280.5L588.0 281.0L589.3 278.3L590.8 279.0L592.6 277.6L593.1 275.0L594.5 275.4L597.2 273.7L596.3 270.0L594.5 269.0L591.7 271.4L590.5 270.8L590.0 270.1L592.9 266.6L592.5 265.8L590.2 266.9L588.5 263.6L588.8 260.4L592.3 260.9L594.9 257.8L593.6 255.8L594.6 254.2L596.7 253.3L601.2 252.1L602.6 249.3Z"/><path data-n="7" fill="url(#schatch)" stroke="none" d="M705.2 239.7L706.8 242.2L709.5 238.4L712.8 238.6L715.1 240.4L718.3 240.2L720.1 242.3L720.4 245.2L724.5 245.4L729.8 248.2L732.5 247.5L733.5 245.8L739.5 245.1L741.8 251.7L742.6 249.7L747.7 249.7L747.8 252.1L751.8 253.2L749.9 256.6L752.1 258.5L754.1 254.3L758.0 252.6L763.6 245.3L765.6 247.7L764.3 251.7L763.1 251.7L760.4 256.1L755.2 258.6L755.3 259.8L759.2 260.1L760.4 262.0L757.8 265.0L756.0 265.0L748.2 269.9L747.8 271.1L750.2 273.8L747.9 276.1L748.7 278.9L748.0 280.4L749.0 282.1L752.1 281.9L750.0 284.5L748.3 283.0L745.4 287.4L742.7 286.9L740.6 293.6L733.5 295.9L729.7 292.8L722.0 291.6L722.8 293.5L720.9 295.1L720.7 298.0L724.5 299.5L724.6 301.3L720.1 300.3L719.6 301.8L720.8 303.5L719.8 305.0L722.5 307.5L722.0 308.7L724.0 310.5L725.2 314.7L721.4 315.2L720.6 317.9L715.1 320.6L711.5 326.2L709.9 326.9L706.9 333.8L704.2 332.1L704.1 326.4L698.7 324.5L694.1 324.7L692.0 322.2L694.3 321.8L693.1 319.9L686.7 315.3L687.3 313.1L685.4 312.6L687.2 306.5L689.1 307.7L690.6 310.8L693.8 306.8L692.4 302.9L689.3 303.3L686.8 301.6L689.6 291.7L695.6 288.6L695.9 286.1L701.2 285.3L700.9 282.9L698.9 282.8L699.1 278.7L695.9 276.6L695.8 272.1L694.6 273.5L693.8 273.0L693.7 271.6L696.2 269.4L698.2 270.9L698.3 267.7L699.8 265.7L698.9 265.2L699.6 261.9L697.4 259.9L695.7 255.2L696.7 254.0L695.4 249.9L696.5 249.5L696.5 245.6L698.0 245.1L701.4 239.3L703.2 239.9L705.8 234.7L705.2 239.7Z"/><path data-n="4" fill="#f8f4eb" stroke="none" d="M608.5 256.4L609.5 257.2L611.2 256.1L614.2 257.6L620.1 250.7L622.4 256.3L628.1 258.5L627.8 262.9L629.0 262.5L631.1 264.5L631.7 265.9L630.2 269.1L632.3 271.8L631.8 276.4L627.7 281.0L629.7 285.6L624.9 290.8L623.0 290.1L620.7 291.4L617.9 288.0L617.6 289.3L612.7 283.4L609.3 283.2L610.4 281.9L609.4 281.1L608.7 269.5L610.8 267.4L607.6 264.7L608.5 261.5L606.7 258.3L608.5 256.4Z"/><path data-n="8" fill="#f8f4eb" stroke="none" d="M760.4 262.0L765.4 260.4L767.2 260.9L772.0 258.1L773.0 259.5L774.6 252.2L777.0 248.8L778.8 249.4L780.4 255.2L785.1 261.1L784.7 262.1L791.9 266.9L794.0 266.7L795.0 268.5L798.0 269.6L791.8 280.0L793.8 283.8L793.3 285.4L782.4 293.8L780.5 301.2L774.2 308.7L768.9 319.2L767.7 320.6L766.9 319.8L763.9 324.1L763.4 325.1L759.6 324.4L758.6 325.6L757.0 324.6L756.3 325.9L752.7 323.8L748.1 325.3L745.6 324.6L745.3 323.6L747.7 321.7L748.2 320.0L746.9 315.2L748.5 309.1L747.4 305.7L742.4 303.7L736.8 305.9L738.5 308.3L736.1 311.0L736.1 313.9L734.6 315.3L736.7 316.7L733.7 318.3L733.7 320.3L732.2 321.8L725.0 321.3L724.8 317.3L720.6 317.9L721.4 315.2L725.2 314.7L724.0 310.5L722.0 308.7L722.5 307.5L719.8 305.0L720.8 303.5L719.6 301.8L720.1 300.3L724.6 301.3L724.5 299.5L720.7 298.0L720.9 295.1L722.8 293.5L722.0 291.6L729.7 292.8L733.5 295.9L740.6 293.6L742.7 286.9L745.4 287.4L748.3 283.0L750.0 284.5L752.1 281.9L749.0 282.1L748.0 280.4L748.7 278.9L747.9 276.1L750.2 273.8L747.8 271.1L748.2 269.9L756.0 265.0L757.8 265.0L760.4 262.0Z"/><path data-n="6" fill="url(#schatch)" stroke="none" d="M693.8 273.0L694.6 273.5L695.8 272.1L695.9 276.6L699.1 278.7L698.9 282.8L700.9 282.9L701.2 285.3L695.9 286.1L695.6 288.6L689.6 291.7L686.8 301.6L689.3 303.3L692.4 302.9L693.8 306.8L690.6 310.8L689.1 307.7L687.2 306.5L685.6 307.0L683.9 306.0L682.9 305.9L682.6 308.0L678.1 307.2L673.3 312.2L673.2 313.5L675.5 316.0L681.9 319.6L679.0 326.8L672.7 323.1L671.3 330.3L671.8 333.8L670.2 335.5L667.1 334.3L664.5 332.0L664.5 330.1L661.3 328.9L657.7 325.1L652.9 323.6L651.6 323.4L647.0 327.6L641.9 324.0L641.8 322.6L642.9 319.4L645.2 319.5L646.7 316.8L636.1 313.4L633.1 317.7L628.3 315.0L628.4 312.8L630.1 311.7L622.7 306.3L624.7 303.2L621.5 300.3L618.9 302.6L617.8 300.4L614.3 301.1L613.1 303.5L614.8 305.4L612.9 310.1L611.6 309.4L609.1 311.8L605.3 310.8L604.3 312.5L603.9 314.1L601.2 314.8L600.1 317.0L597.9 315.4L589.4 316.1L588.2 317.4L585.8 316.7L587.8 313.1L593.9 309.2L594.3 302.9L600.8 299.1L600.1 295.7L604.8 290.4L609.7 291.5L612.4 289.4L614.9 291.1L615.2 290.3L617.6 290.8L617.6 289.3L617.9 288.0L620.7 291.4L623.0 290.1L624.9 290.8L629.7 285.6L634.1 288.9L637.6 285.9L640.0 285.9L640.1 282.6L644.9 277.5L645.4 274.4L647.8 273.7L649.7 270.3L654.8 273.8L657.5 271.8L658.5 273.8L661.9 274.6L665.4 279.0L668.7 276.6L671.0 276.5L672.3 274.8L676.3 277.7L677.4 281.4L682.3 277.5L685.6 278.1L684.9 276.1L686.8 275.8L685.8 273.9L686.8 272.9L691.1 274.2L693.8 273.0Z"/><path data-n="12" fill="url(#schatch)" stroke="none" d="M604.3 312.5L605.3 310.8L609.1 311.8L611.6 309.4L612.9 310.1L614.8 305.4L613.1 303.5L614.3 301.1L617.8 300.4L618.9 302.6L621.5 300.3L624.7 303.2L622.7 306.3L630.1 311.7L628.4 312.8L628.3 315.0L633.1 317.7L636.1 313.4L646.7 316.8L645.2 319.5L642.9 319.4L641.8 322.6L641.9 324.0L647.0 327.6L651.6 323.4L652.9 323.6L651.7 325.7L656.2 326.5L655.8 330.2L650.7 328.1L646.1 333.7L644.2 339.2L639.1 342.5L639.2 347.6L633.7 344.6L628.5 348.4L627.2 351.3L623.1 350.5L621.7 353.6L623.6 352.8L623.4 356.4L621.2 355.1L617.9 358.2L614.8 358.5L613.3 358.5L609.9 353.8L606.0 352.1L604.6 353.4L604.5 359.1L602.9 360.4L588.2 363.8L585.7 362.0L585.5 357.6L595.2 349.9L591.4 346.9L587.1 347.7L585.9 346.2L582.5 346.3L583.1 345.2L579.5 344.9L577.2 347.0L573.2 347.0L570.9 346.0L570.1 343.7L571.1 343.9L571.3 342.5L571.9 339.8L569.9 338.9L572.2 334.4L570.7 333.6L570.5 330.6L570.6 329.1L572.0 328.4L574.8 327.6L578.1 323.5L579.4 323.3L581.9 317.9L585.8 316.7L588.2 317.4L589.4 316.1L597.9 315.4L600.1 317.0L601.2 314.8L603.9 314.1L604.3 312.5Z"/><path data-n="9" fill="#f8f4eb" stroke="none" d="M756.3 325.9L754.6 332.4L755.9 333.5L753.3 338.5L750.8 339.0L752.4 340.7L755.7 341.2L751.6 345.1L747.3 345.5L745.9 344.2L743.2 345.9L740.7 344.6L740.3 341.4L738.7 342.4L737.5 339.8L734.0 340.2L734.1 339.1L737.4 337.5L735.8 336.4L735.8 334.7L733.4 333.5L732.2 329.5L728.9 330.5L724.9 338.8L723.4 338.8L720.5 336.0L720.5 331.9L725.0 327.7L725.0 321.3L732.2 321.8L733.7 320.3L733.7 318.3L736.7 316.7L734.6 315.3L736.1 313.9L736.1 311.0L738.5 308.3L736.8 305.9L742.4 303.7L747.4 305.7L748.5 309.1L746.9 315.2L748.2 320.0L747.7 321.7L745.3 323.6L745.6 324.6L748.1 325.3L752.7 323.8L756.3 325.9Z"/><path data-n="15" fill="url(#schatch)" stroke="none" d="M466.9 335.8L468.4 332.4L471.6 335.5L473.6 334.5L469.3 329.7L469.5 326.8L471.0 326.8L472.1 328.9L475.8 329.9L475.6 331.3L478.2 334.1L480.8 334.9L480.7 336.2L488.0 340.1L490.6 338.0L496.7 343.2L501.8 341.6L505.6 336.7L502.0 335.4L499.4 331.5L503.2 329.3L505.6 331.7L506.8 335.3L505.9 336.5L512.7 338.4L514.9 337.5L512.8 332.3L517.4 329.8L513.5 326.0L513.3 323.8L511.9 322.7L515.6 319.7L516.4 317.6L520.0 317.1L522.9 319.5L522.0 320.9L524.4 324.2L521.7 328.2L524.4 329.9L523.7 331.6L524.8 333.6L529.2 333.9L528.3 339.5L530.7 342.2L527.6 344.8L524.8 351.8L520.6 356.0L519.8 360.6L521.3 364.1L524.1 365.1L524.7 367.0L521.9 369.1L522.5 372.6L523.5 375.8L526.3 377.7L522.2 383.4L522.1 393.0L524.1 391.5L523.4 401.3L520.5 405.0L510.3 402.2L507.9 400.5L507.0 401.2L510.5 404.5L512.4 409.8L506.6 409.8L504.8 415.9L503.6 417.8L499.7 418.6L497.5 417.2L495.7 418.8L484.1 414.1L482.1 409.5L480.1 408.4L478.1 405.7L478.9 402.5L475.0 400.0L472.3 400.4L469.9 398.3L469.9 399.8L468.3 400.2L467.6 399.0L466.2 399.7L464.3 398.3L464.7 390.2L461.3 389.1L461.1 388.1L463.8 382.8L470.2 384.9L470.6 382.8L467.4 377.2L469.0 375.6L468.0 372.1L470.0 372.1L470.0 367.7L474.1 366.6L475.5 364.7L470.9 362.9L471.0 360.4L473.0 359.0L474.1 352.9L479.6 345.5L482.1 345.3L483.2 342.2L480.0 340.6L477.8 341.7L473.4 338.6L471.8 339.2L472.7 337.7L471.9 335.7L470.5 336.5L466.9 335.8Z"/><path data-n="10" fill="url(#schatch)" stroke="none" d="M683.9 306.0L685.6 307.0L687.2 306.5L685.4 312.6L687.3 313.1L686.7 315.3L693.1 319.9L694.3 321.8L692.0 322.2L694.1 324.7L698.7 324.5L704.1 326.4L704.2 332.1L706.9 333.8L709.9 326.9L711.5 326.2L715.1 320.6L720.6 317.9L724.8 317.3L725.0 321.3L725.0 327.7L720.5 331.9L720.5 336.0L723.4 338.8L724.9 338.8L728.9 330.5L732.2 329.5L733.4 333.5L735.8 334.7L735.8 336.4L737.4 337.5L734.1 339.1L734.0 340.2L737.5 339.8L738.7 342.4L740.3 341.4L740.7 344.6L743.2 345.9L741.2 348.3L737.1 350.3L734.5 354.4L727.2 353.9L722.9 357.4L721.2 357.6L722.3 360.9L720.8 369.7L717.3 373.7L714.0 375.2L713.3 379.7L709.1 385.3L705.1 386.3L702.0 385.6L698.7 383.2L700.4 381.1L696.1 377.0L694.4 377.7L692.2 376.9L687.4 378.5L687.5 374.5L683.5 370.6L682.8 371.1L684.5 369.4L679.4 364.2L680.4 360.7L677.9 358.8L678.8 357.7L676.0 355.2L676.5 353.4L674.4 351.7L674.6 349.7L673.5 351.0L671.7 349.3L671.8 342.8L676.0 341.3L677.1 338.7L673.9 336.8L671.8 333.8L671.3 330.3L672.7 323.1L679.0 326.8L681.9 319.6L675.5 316.0L673.2 313.5L673.3 312.2L678.1 307.2L682.6 308.0L682.9 305.9L683.9 306.0Z"/><path data-n="11" fill="#f8f4eb" stroke="none" d="M671.8 333.8L673.9 336.8L677.1 338.7L676.0 341.3L671.8 342.8L671.7 349.3L673.5 351.0L674.6 349.7L674.4 351.7L676.5 353.4L676.0 355.2L678.8 357.7L677.9 358.8L680.4 360.7L679.4 364.2L684.5 369.4L682.8 371.1L682.9 376.7L680.5 377.4L680.4 379.5L678.5 382.2L675.9 381.8L675.0 382.8L671.2 381.8L668.4 383.3L667.2 381.6L663.8 380.9L661.1 383.1L657.4 380.5L655.9 382.3L652.0 379.9L652.1 381.4L647.7 384.1L647.9 385.2L645.8 385.3L644.2 388.1L643.1 389.8L640.2 385.3L636.0 382.4L635.7 379.9L633.2 378.2L638.1 378.2L637.9 376.2L634.1 377.3L634.0 370.5L635.3 370.0L635.6 367.2L636.7 366.6L635.9 364.6L631.2 361.9L630.2 364.2L627.2 360.7L626.5 357.5L623.4 356.4L623.6 352.8L621.7 353.6L623.1 350.5L627.2 351.3L628.5 348.4L633.7 344.6L639.2 347.6L639.1 342.5L644.2 339.2L646.1 333.7L650.7 328.1L655.8 330.2L656.2 326.5L651.7 325.7L652.9 323.6L657.7 325.1L661.3 328.9L664.5 330.1L664.5 332.0L667.1 334.3L670.2 335.5L671.8 333.8Z"/><path data-n="14" fill="#f8f4eb" stroke="none" d="M532.3 342.5L538.5 343.6L540.7 346.8L540.4 350.2L544.8 348.3L549.0 348.7L551.7 346.6L552.7 343.7L555.9 341.7L558.4 346.3L561.3 346.7L558.7 349.8L559.9 351.0L562.7 348.6L565.2 349.2L566.5 345.6L571.3 342.5L571.1 343.9L570.1 343.7L570.9 346.0L573.2 347.0L577.2 347.0L579.5 344.9L583.1 345.2L582.5 346.3L585.9 346.2L587.1 347.7L591.4 346.9L595.2 349.9L585.5 357.6L585.7 362.0L588.2 363.8L587.1 365.6L591.8 369.2L591.9 373.3L595.3 375.7L594.8 378.6L595.7 376.8L602.6 381.2L604.3 383.9L603.3 389.4L600.3 391.8L598.6 390.4L597.8 392.7L598.0 389.1L592.7 388.3L588.4 390.0L584.8 387.8L582.9 391.3L581.1 385.0L578.4 384.3L579.3 380.7L577.3 379.3L572.2 384.8L566.9 386.3L565.8 390.8L559.9 392.5L561.7 398.1L560.8 402.0L552.8 404.5L552.6 406.4L550.9 407.2L543.3 396.7L531.3 392.5L534.0 380.8L531.8 377.9L528.6 378.4L526.3 377.7L523.5 375.8L522.5 372.6L521.9 369.1L524.7 367.0L524.1 365.1L521.3 364.1L519.8 360.6L520.6 356.0L524.8 351.8L527.6 344.8L530.7 342.2L532.3 342.5Z"/><path data-n="43" fill="url(#schatch)" stroke="none" d="M174.4 395.0L167.9 405.4L171.2 410.4L167.1 417.2L156.8 417.6L157.8 425.8L161.9 428.0L166.0 427.8L170.6 429.3L169.4 431.7L170.4 438.0L166.1 439.5L164.9 444.4L160.8 441.7L157.7 453.2L156.5 453.8L148.2 454.0L140.7 455.8L135.1 452.0L132.2 459.5L126.9 458.2L124.1 453.1L116.7 453.4L115.4 455.2L96.8 455.5L90.9 454.2L94.0 443.9L93.9 438.1L95.3 435.8L92.3 434.0L91.7 432.0L88.6 431.7L86.7 436.3L84.3 434.9L79.2 434.9L76.1 438.8L62.8 437.6L62.0 426.1L64.5 418.6L70.5 413.7L77.7 411.6L82.5 403.7L78.3 395.4L73.0 395.1L70.4 393.8L74.4 384.3L75.5 382.3L82.4 387.8L82.0 388.7L86.9 388.9L90.6 392.3L98.8 394.5L104.3 394.5L102.4 392.5L103.8 388.6L110.9 384.1L113.9 377.6L116.6 375.2L116.8 376.7L122.4 379.4L124.6 377.4L127.6 377.6L130.0 376.1L133.8 376.4L140.0 371.0L141.4 371.0L144.6 373.0L144.9 374.9L143.6 376.7L148.0 376.9L151.8 380.6L154.7 379.4L156.7 380.3L159.5 377.7L163.0 381.4L161.8 385.3L168.4 382.2L174.4 395.0Z"/><path data-n="13" fill="#f8f4eb" stroke="none" d="M614.8 358.5L617.9 358.2L621.2 355.1L623.4 356.4L626.5 357.5L627.2 360.7L630.2 364.2L631.2 361.9L635.9 364.6L636.7 366.6L635.6 367.2L635.3 370.0L634.0 370.5L634.1 377.3L637.9 376.2L638.1 378.2L633.2 378.2L635.7 379.9L636.0 382.4L640.2 385.3L643.1 389.8L644.2 388.1L645.8 391.9L644.2 392.1L639.5 388.8L638.7 391.1L637.1 392.0L632.2 390.5L631.5 395.9L629.8 396.7L627.7 401.1L624.0 400.9L622.2 401.9L620.3 401.0L618.0 399.3L616.5 395.3L614.8 397.4L610.9 395.3L609.4 397.4L609.4 400.6L604.3 403.0L600.7 402.2L598.1 404.8L592.8 403.4L591.1 400.9L597.9 393.9L597.8 392.7L598.6 390.4L600.3 391.8L603.3 389.4L604.3 383.9L602.6 381.2L595.7 376.8L594.8 378.6L595.3 375.7L591.9 373.3L591.8 369.2L587.1 365.6L588.2 363.8L602.9 360.4L604.5 359.1L604.6 353.4L606.0 352.1L609.9 353.8L613.3 358.5L614.8 358.5Z"/><path data-n="20" fill="#f8f4eb" stroke="none" d="M644.2 388.1L645.8 385.3L647.9 385.2L647.7 384.1L652.1 381.4L652.0 379.9L655.9 382.3L657.4 380.5L661.1 383.1L663.8 380.9L667.2 381.6L668.4 383.3L671.2 381.8L675.0 382.8L675.9 381.8L678.5 382.2L680.4 379.5L680.5 377.4L682.9 376.7L682.8 371.1L683.5 370.6L687.5 374.5L687.4 378.5L692.2 376.9L694.4 377.7L696.1 377.0L700.4 381.1L698.7 383.2L702.0 385.6L705.1 386.3L709.1 385.3L704.3 389.7L702.5 393.9L700.8 395.2L702.4 399.5L699.3 409.3L697.8 411.5L698.6 416.1L695.2 419.2L694.1 422.5L694.4 426.3L692.5 426.7L690.7 429.2L685.9 430.6L686.9 434.3L684.8 438.2L687.2 440.0L687.2 442.6L692.6 448.4L691.3 451.8L689.3 451.8L686.3 455.5L687.8 458.9L682.7 458.2L679.7 455.9L679.1 458.0L676.0 458.8L675.1 460.3L670.5 458.2L668.7 460.4L668.2 459.0L659.7 454.4L659.3 456.4L656.6 456.8L655.3 455.5L657.2 446.3L654.0 444.1L653.6 445.3L651.6 444.9L650.6 443.5L651.6 441.6L648.1 435.9L649.9 428.7L647.5 426.7L646.5 423.8L641.5 420.9L644.9 418.8L647.4 421.4L649.9 419.7L650.1 416.6L652.4 413.1L654.5 412.2L654.6 407.5L657.8 404.4L654.4 401.9L653.9 399.4L648.9 396.9L645.8 391.9L644.2 388.1Z"/><path data-n="42" fill="url(#schatch)" stroke="none" d="M230.7 411.8L235.3 414.5L234.6 424.7L236.4 426.0L238.9 425.7L238.5 428.4L242.5 435.3L241.7 439.0L239.2 441.9L235.0 439.4L232.7 443.2L232.4 449.0L234.9 449.6L234.1 453.5L232.1 455.0L230.1 454.8L229.3 456.9L225.3 457.8L226.9 461.6L229.8 462.7L228.6 468.4L232.2 471.2L235.5 471.0L241.1 475.8L238.0 481.9L240.9 484.6L242.2 489.1L241.5 492.0L249.7 490.2L251.5 489.1L251.7 487.1L256.8 487.5L256.8 492.3L255.0 494.6L257.0 497.0L250.8 499.5L250.1 501.1L251.0 502.5L253.3 505.3L251.7 509.3L252.6 512.8L244.5 511.3L243.8 507.9L238.7 509.9L237.1 514.1L231.7 509.2L228.9 510.6L220.2 511.1L219.1 507.7L221.1 498.1L213.7 496.6L211.8 497.9L211.5 493.3L205.0 498.3L204.7 493.5L199.3 494.6L201.6 493.3L193.1 487.6L195.5 483.5L193.5 480.2L193.5 476.9L186.1 481.8L183.6 475.4L188.8 471.4L187.6 468.9L191.7 461.7L189.0 457.7L184.6 454.2L181.0 454.0L167.7 448.6L168.0 446.8L164.9 444.4L166.1 439.5L170.4 438.0L169.4 431.7L170.6 429.3L166.0 427.8L161.9 428.0L157.8 425.8L156.8 417.6L167.1 417.2L171.2 410.4L167.9 405.4L174.4 395.0L180.7 397.4L180.5 399.3L184.4 405.1L191.0 404.8L193.4 401.1L196.3 399.8L197.8 399.9L198.8 401.7L202.2 401.9L206.4 390.9L209.0 392.3L211.6 395.1L212.7 401.5L210.9 404.4L206.8 406.8L206.9 408.1L209.9 411.5L211.9 411.6L213.3 414.2L209.5 417.0L209.3 420.9L213.6 422.1L217.4 420.8L218.6 426.6L221.1 429.5L225.1 426.6L223.0 422.4L224.4 416.0L226.9 415.3L230.7 411.8Z"/><path data-n="17" fill="#f8f4eb" stroke="none" d="M528.6 378.4L531.8 377.9L534.0 380.8L531.3 392.5L543.3 396.7L550.9 407.2L550.5 417.0L546.7 425.4L540.8 431.5L540.5 433.5L535.7 430.6L533.4 432.8L528.2 433.5L526.0 435.7L520.3 431.7L516.9 433.3L515.2 424.9L513.0 425.4L510.6 423.5L510.7 418.2L504.8 415.9L506.6 409.8L512.4 409.8L510.5 404.5L507.0 401.2L507.9 400.5L510.3 402.2L520.5 405.0L523.4 401.3L524.1 391.5L522.1 393.0L522.2 383.4L526.3 377.7L528.6 378.4Z"/><path data-n="18" fill="#f8f4eb" stroke="none" d="M581.1 385.0L582.9 391.3L584.8 387.8L588.4 390.0L592.7 388.3L598.0 389.1L597.8 392.7L597.9 393.9L591.1 400.9L588.1 400.2L584.2 396.0L581.8 404.6L579.3 405.7L583.8 408.4L582.5 415.5L586.1 415.9L589.3 419.3L584.7 424.2L585.2 427.3L581.3 432.1L582.9 435.5L584.7 436.6L584.8 443.0L583.2 449.3L588.4 451.3L587.8 454.5L585.3 457.9L581.3 454.1L580.3 457.5L574.5 457.6L571.0 463.3L565.9 464.7L565.6 466.9L562.6 469.1L556.6 469.7L553.6 468.5L547.7 473.1L543.5 472.7L539.1 468.7L541.2 464.5L536.0 462.1L535.3 458.6L538.8 453.3L536.1 449.7L538.7 443.9L545.1 439.9L543.1 435.6L540.5 433.5L540.8 431.5L546.7 425.4L550.5 417.0L550.9 407.2L552.6 406.4L552.8 404.5L560.8 402.0L561.7 398.1L559.9 392.5L565.8 390.8L566.9 386.3L572.2 384.8L577.3 379.3L579.3 380.7L578.4 384.3L581.1 385.0Z"/><path data-n="19" fill="url(#schatch)" stroke="none" d="M639.5 388.8L644.2 392.1L645.8 391.9L648.9 396.9L653.9 399.4L654.4 401.9L657.8 404.4L654.6 407.5L654.5 412.2L652.4 413.1L650.1 416.6L649.9 419.7L647.4 421.4L644.9 418.8L641.5 420.9L646.5 423.8L647.5 426.7L649.9 428.7L648.1 435.9L639.5 439.1L637.3 436.8L635.3 437.7L633.9 435.1L634.5 431.7L632.5 429.3L627.6 433.6L622.9 435.1L622.8 436.5L618.4 437.2L617.6 441.9L611.4 444.2L610.9 449.0L612.5 453.5L608.7 455.8L608.2 454.6L604.8 454.4L605.8 457.0L601.3 463.7L601.9 468.9L599.9 471.1L586.0 474.5L585.0 473.1L578.6 474.2L579.9 470.1L577.2 466.1L576.5 462.6L581.6 460.3L580.3 457.5L581.3 454.1L585.3 457.9L587.8 454.5L588.4 451.3L583.2 449.3L584.8 443.0L584.7 436.6L582.9 435.5L581.3 432.1L585.2 427.3L584.7 424.2L589.3 419.3L586.1 415.9L582.5 415.5L583.8 408.4L579.3 405.7L581.8 404.6L584.2 396.0L588.1 400.2L591.1 400.9L592.8 403.4L598.1 404.8L600.7 402.2L604.3 403.0L609.4 400.6L609.4 397.4L610.9 395.3L614.8 397.4L616.5 395.3L618.0 399.3L620.3 401.0L622.2 401.9L624.0 400.9L627.7 401.1L629.8 396.7L631.5 395.9L632.2 390.5L637.1 392.0L638.7 391.1L639.5 388.8Z"/><path data-n="16" fill="url(#schatch)" stroke="none" d="M480.1 408.4L482.1 409.5L484.1 414.1L495.7 418.8L497.5 417.2L499.7 418.6L503.6 417.8L504.8 415.9L510.7 418.2L510.6 423.5L513.0 425.4L515.2 424.9L516.9 433.3L520.3 431.7L526.0 435.7L528.2 433.5L533.4 432.8L535.7 430.6L540.5 433.5L543.1 435.6L545.1 439.9L538.7 443.9L536.1 449.7L538.8 453.3L535.3 458.6L536.0 462.1L541.2 464.5L539.1 468.7L543.5 472.7L549.3 477.6L550.1 479.1L549.5 481.9L545.5 484.5L543.7 491.0L544.5 493.8L541.0 495.1L539.7 499.7L537.3 499.2L535.2 496.5L534.8 492.4L529.3 490.5L527.3 491.0L525.9 495.1L523.8 495.8L521.7 491.5L517.9 492.7L518.3 494.4L515.8 495.4L508.3 496.2L505.6 494.0L505.3 490.7L502.6 488.7L504.9 485.1L503.1 482.1L501.8 481.4L497.8 482.2L490.6 479.4L488.9 482.6L491.3 488.2L485.8 491.0L483.2 488.2L483.7 484.1L481.8 481.0L476.6 478.5L477.6 476.7L475.5 471.5L471.8 470.6L466.2 465.7L468.2 459.3L465.7 455.2L460.2 452.6L463.8 444.4L462.8 439.8L467.0 437.0L468.3 434.3L466.7 432.6L469.6 429.9L469.3 426.1L471.6 424.1L472.3 419.7L471.0 419.2L472.1 417.8L469.8 416.3L471.2 411.4L471.4 411.5L472.6 412.5L473.5 409.5L475.4 408.4L477.9 408.8L478.1 405.7L480.1 408.4Z"/><path data-n="38" fill="url(#schatch)" stroke="none" d="M408.2 441.7L417.1 442.4L419.5 439.2L424.6 438.0L426.8 434.5L427.9 434.7L427.8 436.8L430.7 438.7L434.3 432.1L437.7 428.7L438.9 429.6L440.2 427.8L440.9 422.5L445.5 419.5L449.1 422.5L449.7 425.2L455.0 417.8L462.2 417.9L464.4 416.7L467.4 410.8L471.1 411.3L471.2 411.4L469.8 416.3L472.1 417.8L471.0 419.2L472.3 419.7L471.6 424.1L469.3 426.1L469.6 429.9L466.7 432.6L468.3 434.3L467.0 437.0L462.8 439.8L463.8 444.4L460.2 452.6L465.7 455.2L468.2 459.3L466.2 465.7L471.8 470.6L475.5 471.5L477.6 476.7L465.7 478.6L457.2 477.9L456.7 480.3L452.3 483.0L450.4 478.6L447.8 480.1L433.7 482.0L419.5 477.3L411.5 479.0L408.6 478.4L410.6 473.3L410.4 469.5L408.2 465.6L406.8 465.5L409.1 457.3L407.2 454.7L405.0 453.9L407.6 449.0L408.2 441.7Z"/><path data-n="39" fill="#f8f4eb" stroke="none" d="M408.2 441.7L407.6 449.0L405.0 453.9L407.2 454.7L409.1 457.3L406.8 465.5L408.2 465.6L410.4 469.5L410.6 473.3L408.6 478.4L411.5 479.0L411.9 485.9L411.1 485.8L406.7 482.1L403.8 482.7L401.1 489.1L395.9 488.0L395.9 493.8L391.8 493.4L390.3 488.6L387.4 490.1L386.1 492.5L386.5 496.7L383.0 501.0L379.2 500.4L374.6 497.9L376.5 496.1L374.5 491.6L371.8 489.6L365.2 488.7L363.2 484.3L354.5 488.3L351.6 484.6L349.6 484.0L340.4 496.1L338.1 500.9L342.5 504.6L336.1 506.3L335.3 513.3L328.7 512.4L327.8 515.3L322.7 516.2L320.2 509.6L323.2 507.3L323.2 505.9L324.0 500.4L326.8 494.4L327.2 486.0L329.5 483.5L329.8 478.0L338.4 472.1L348.8 468.3L345.8 467.3L347.4 462.6L344.5 460.9L343.8 457.6L347.5 456.0L349.0 454.1L349.1 452.4L346.6 449.0L345.8 443.7L349.9 435.4L352.1 435.2L351.5 432.1L354.2 426.0L353.2 424.7L354.6 420.3L355.4 419.2L359.1 418.8L363.7 421.3L368.8 416.7L371.0 419.7L377.3 421.5L379.7 418.7L383.0 419.0L382.2 420.4L382.6 424.3L386.4 429.0L385.8 430.0L389.6 431.7L390.2 436.4L393.1 436.0L394.0 437.5L397.0 437.2L398.8 435.2L402.7 439.6L408.2 441.7Z"/><path data-n="41" fill="url(#schatch)" stroke="none" d="M349.9 435.4L345.8 443.7L346.6 449.0L349.1 452.4L349.0 454.1L347.5 456.0L343.8 457.6L344.5 460.9L347.4 462.6L345.8 467.3L348.8 468.3L338.4 472.1L329.8 478.0L329.5 483.5L327.2 486.0L326.8 494.4L324.0 500.4L323.2 505.9L313.9 499.9L310.8 496.5L307.2 496.3L298.7 489.1L295.2 494.1L289.9 493.4L288.9 492.2L286.3 497.4L281.9 497.2L282.6 501.4L273.4 505.7L270.8 500.6L261.7 500.3L251.0 502.5L250.1 501.1L250.8 499.5L257.0 497.0L255.0 494.6L256.8 492.3L256.8 487.5L258.5 487.2L258.8 482.3L260.8 479.9L256.7 475.9L253.8 474.7L255.1 470.0L258.1 470.1L260.7 467.5L261.3 462.9L263.7 459.8L264.1 456.9L266.3 456.7L270.2 460.2L270.5 458.3L267.2 451.0L269.4 450.4L270.6 448.6L272.6 448.8L273.2 446.3L277.7 446.1L277.0 442.0L279.2 439.1L280.7 439.2L281.2 433.2L284.8 429.5L286.1 430.7L286.7 429.8L290.8 427.2L292.4 427.5L293.3 424.3L292.1 422.3L294.2 420.7L303.7 428.7L307.6 429.3L308.4 433.8L311.8 430.0L317.8 430.8L320.2 438.0L322.0 439.2L324.6 436.7L327.9 435.9L331.0 437.9L333.2 436.7L334.9 435.1L335.1 430.2L337.7 429.3L345.2 429.2L348.5 434.9L349.9 435.4Z"/><path data-n="44" fill="#f8f4eb" stroke="none" d="M164.9 444.4L168.0 446.8L167.7 448.6L181.0 454.0L184.6 454.2L189.0 457.7L191.7 461.7L187.6 468.9L188.8 471.4L183.6 475.4L186.1 481.8L182.8 483.7L182.0 482.4L174.3 488.6L179.0 495.7L175.5 500.6L172.9 501.3L169.5 506.5L163.6 509.2L161.5 512.0L157.9 513.3L151.9 510.5L147.7 510.4L134.4 506.1L130.5 506.2L130.4 503.9L125.4 503.7L121.6 498.2L111.5 495.2L104.2 502.5L103.2 493.3L94.8 493.7L89.3 490.7L85.8 486.5L87.3 469.4L89.1 468.1L89.6 466.0L88.2 462.0L90.9 454.2L96.8 455.5L115.4 455.2L116.7 453.4L124.1 453.1L126.9 458.2L132.2 459.5L135.1 452.0L140.7 455.8L148.2 454.0L156.5 453.8L157.7 453.2L160.8 441.7L164.9 444.4Z"/><path data-n="21" fill="#f8f4eb" stroke="none" d="M648.1 435.9L651.6 441.6L650.6 443.5L651.6 444.9L653.6 445.3L654.0 444.1L657.2 446.3L655.3 455.5L656.6 456.8L659.3 456.4L659.7 454.4L668.2 459.0L668.7 460.4L667.8 461.9L668.4 463.4L659.6 473.1L657.4 469.1L655.4 472.6L652.0 473.5L649.4 472.6L647.7 468.1L644.3 472.5L639.6 468.8L637.7 469.3L636.9 466.7L634.6 465.0L634.9 461.1L637.5 459.1L636.2 457.9L634.8 458.8L632.1 457.5L633.5 455.7L632.2 452.5L629.7 452.3L632.8 448.6L630.2 448.8L629.0 447.0L624.6 446.7L622.8 436.5L622.9 435.1L627.6 433.6L632.5 429.3L634.5 431.7L633.9 435.1L635.3 437.7L637.3 436.8L639.5 439.1L648.1 435.9Z"/><path data-n="23" fill="url(#schatch)" stroke="none" d="M580.3 457.5L581.6 460.3L576.5 462.6L577.2 466.1L579.9 470.1L578.6 474.2L585.0 473.1L586.0 474.5L599.9 471.1L601.9 468.9L601.3 463.7L605.8 457.0L604.8 454.4L608.2 454.6L608.7 455.8L612.5 453.5L610.9 449.0L611.4 444.2L617.6 441.9L618.4 437.2L622.8 436.5L624.6 446.7L629.0 447.0L630.2 448.8L632.8 448.6L629.7 452.3L632.2 452.5L633.5 455.7L632.1 457.5L634.8 458.8L636.2 457.9L637.5 459.1L634.9 461.1L634.6 465.0L636.9 466.7L637.7 469.3L636.4 473.4L634.3 475.7L631.9 476.0L629.1 474.2L626.4 479.0L627.7 483.4L631.0 485.6L622.7 497.2L622.6 506.5L620.1 508.9L621.7 510.4L620.9 510.4L616.5 512.5L610.3 507.7L607.8 512.7L603.1 510.6L600.1 512.7L598.3 512.8L596.3 509.6L593.4 508.5L589.5 508.4L587.6 510.5L583.5 510.1L574.8 506.0L569.7 511.9L563.7 508.8L563.1 510.3L560.7 510.2L558.2 513.2L555.7 512.7L554.8 513.8L546.6 515.4L543.8 513.0L545.0 508.7L543.4 508.8L539.0 507.2L537.3 499.2L539.7 499.7L541.0 495.1L544.5 493.8L543.7 491.0L545.5 484.5L549.5 481.9L550.1 479.1L549.3 477.6L543.5 472.7L547.7 473.1L553.6 468.5L556.6 469.7L562.6 469.1L565.6 466.9L565.9 464.7L571.0 463.3L574.5 457.6L580.3 457.5Z"/><path data-n="22" fill="#f8f4eb" stroke="none" d="M687.8 458.9L689.3 460.8L689.0 462.5L684.7 465.0L683.6 468.7L681.6 470.4L682.5 472.7L678.4 478.3L678.5 481.3L681.5 482.3L684.3 491.0L682.2 492.9L679.7 492.9L677.8 496.5L680.1 502.0L684.7 504.0L686.8 507.4L683.9 511.5L676.3 515.0L673.6 518.7L671.5 519.9L668.3 517.1L664.7 516.6L661.3 518.4L660.1 517.6L658.2 518.3L658.0 517.2L655.9 516.9L652.2 513.5L648.7 515.7L645.7 515.0L639.0 508.7L636.4 508.5L634.2 512.5L627.9 505.8L622.6 506.5L622.7 497.2L631.0 485.6L627.7 483.4L626.4 479.0L629.1 474.2L631.9 476.0L634.3 475.7L636.4 473.4L637.7 469.3L639.6 468.8L644.3 472.5L647.7 468.1L649.4 472.6L652.0 473.5L655.4 472.6L657.4 469.1L659.6 473.1L668.4 463.4L667.8 461.9L668.7 460.4L670.5 458.2L675.1 460.3L676.0 458.8L679.1 458.0L679.7 455.9L682.7 458.2L687.8 458.9Z"/><path data-n="45" fill="#f8f4eb" stroke="none" d="M186.1 481.8L193.5 476.9L193.5 480.2L195.5 483.5L193.1 487.6L201.6 493.3L199.3 494.6L204.7 493.5L205.0 498.3L211.5 493.3L211.8 497.9L213.7 496.6L221.1 498.1L219.1 507.7L220.2 511.1L228.9 510.6L231.7 509.2L237.1 514.1L238.7 509.9L243.8 507.9L244.5 511.3L252.6 512.8L256.7 519.7L252.9 524.6L241.1 525.6L237.6 531.3L239.1 536.0L240.3 536.3L237.8 539.9L228.2 542.4L224.6 540.3L220.5 542.3L217.6 535.3L213.5 534.3L213.3 527.8L212.1 527.5L209.9 522.4L206.1 519.5L204.0 515.6L194.8 515.8L192.1 510.4L182.5 515.0L181.8 513.6L174.2 516.7L169.4 514.3L163.6 509.2L169.5 506.5L172.9 501.3L175.5 500.6L179.0 495.7L174.3 488.6L182.0 482.4L182.8 483.7L186.1 481.8Z"/><path data-n="37" fill="#f8f4eb" stroke="none" d="M411.5 479.0L419.5 477.3L433.7 482.0L447.8 480.1L450.4 478.6L452.3 483.0L456.7 480.3L457.2 477.9L465.7 478.6L477.6 476.7L476.6 478.5L481.8 481.0L483.7 484.1L483.2 488.2L485.8 491.0L491.3 488.2L488.9 482.6L490.6 479.4L497.8 482.2L501.8 481.4L503.1 482.1L504.9 485.1L502.6 488.7L505.3 490.7L505.6 494.0L508.3 496.2L515.8 495.4L518.3 494.4L517.9 492.7L521.7 491.5L523.8 495.8L525.9 495.1L527.3 491.0L529.3 490.5L534.8 492.4L535.2 496.5L537.3 499.2L539.0 507.2L543.4 508.8L532.3 513.0L526.2 520.4L526.4 523.6L521.6 521.4L521.2 527.0L516.4 524.9L515.5 527.9L499.4 523.0L498.8 524.9L494.7 528.8L479.7 535.0L473.2 530.8L468.9 530.2L467.6 531.3L464.7 527.1L459.4 526.7L458.0 525.2L454.5 528.2L451.9 533.4L447.8 529.2L443.3 529.6L440.7 527.3L439.8 522.5L440.5 521.0L439.4 519.6L432.9 519.7L431.2 522.1L427.9 522.9L427.1 524.4L425.4 523.1L425.4 520.4L419.0 516.6L421.0 509.3L406.7 504.1L405.5 502.7L405.9 499.5L411.2 492.0L411.1 485.8L411.9 485.9L411.5 479.0Z"/><path data-n="46" fill="url(#schatch)" stroke="none" d="M163.6 509.2L169.4 514.3L174.2 516.7L181.8 513.6L182.5 515.0L192.1 510.4L194.8 515.8L204.0 515.6L206.1 519.5L209.9 522.4L212.1 527.5L213.3 527.8L213.5 534.3L217.6 535.3L220.5 542.3L224.6 540.3L228.2 542.4L237.8 539.9L240.3 536.3L242.9 537.1L247.4 541.2L248.0 545.4L245.5 548.0L241.1 548.0L238.8 550.7L242.3 558.5L240.6 566.2L243.4 570.9L241.6 576.4L235.6 575.6L231.9 567.6L229.8 566.1L226.1 568.7L226.7 570.9L222.2 573.5L215.0 573.7L214.0 578.4L212.0 578.3L203.5 576.6L203.1 572.0L200.1 567.4L199.9 564.3L197.3 561.5L190.0 561.5L185.5 565.4L181.8 562.8L176.4 562.7L173.6 557.2L176.5 552.6L175.8 550.0L171.6 546.8L171.2 540.8L166.1 538.3L162.4 534.8L156.9 535.0L155.5 532.0L150.6 529.6L143.5 531.4L137.3 538.9L134.4 542.0L128.3 543.0L124.2 542.9L119.8 538.7L113.9 539.8L105.3 538.2L103.9 543.7L104.5 548.7L103.7 548.7L92.4 550.2L91.5 550.2L93.4 542.4L92.3 540.1L86.5 533.7L83.8 525.1L76.8 524.0L76.3 517.7L78.4 512.3L85.4 513.1L88.0 514.8L91.9 503.4L96.8 497.7L97.1 495.3L95.1 495.3L94.8 493.7L103.2 493.3L104.2 502.5L111.5 495.2L121.6 498.2L125.4 503.7L130.4 503.9L130.5 506.2L134.4 506.1L147.7 510.4L151.9 510.5L157.9 513.3L161.5 512.0L163.6 509.2Z"/><path data-n="40" fill="#f8f4eb" stroke="none" d="M251.0 502.5L261.7 500.3L270.8 500.6L273.4 505.7L282.6 501.4L281.9 497.2L286.3 497.4L288.9 492.2L289.9 493.4L295.2 494.1L298.7 489.1L307.2 496.3L310.8 496.5L313.9 499.9L323.2 505.9L323.2 507.3L320.2 509.6L322.7 516.2L327.8 515.3L328.7 512.4L335.3 513.3L336.1 506.3L342.5 504.6L338.1 500.9L340.4 496.1L349.6 484.0L351.6 484.6L354.5 488.3L363.2 484.3L365.2 488.7L371.8 489.6L374.5 491.6L376.5 496.1L374.6 497.9L373.5 499.4L371.1 498.5L368.2 501.7L364.4 503.3L363.2 508.6L356.9 509.5L356.7 512.5L358.4 517.2L354.5 520.7L354.2 522.9L352.5 522.7L350.9 524.1L341.6 524.0L335.9 526.6L333.9 526.2L330.6 530.0L330.5 538.5L327.7 538.4L325.6 541.1L327.7 543.3L327.8 545.9L326.6 547.2L323.6 547.0L322.9 542.6L321.5 541.4L317.5 542.2L317.2 541.4L310.4 540.8L307.0 531.1L298.8 533.2L298.7 529.3L292.7 530.5L291.5 528.3L283.5 527.0L284.9 535.0L276.4 536.5L275.1 542.6L280.5 549.2L278.8 550.3L279.0 552.3L267.3 556.1L260.5 555.7L257.3 552.1L247.6 559.5L252.9 565.5L252.3 571.2L243.4 570.9L240.6 566.2L242.3 558.5L238.8 550.7L241.1 548.0L245.5 548.0L248.0 545.4L247.4 541.2L242.9 537.1L240.3 536.3L239.1 536.0L237.6 531.3L241.1 525.6L252.9 524.6L256.7 519.7L252.6 512.8L251.7 509.3L253.3 505.3L251.0 502.5Z"/><path data-n="48" fill="url(#schatch)" stroke="none" d="M411.1 485.8L411.2 492.0L405.9 499.5L405.5 502.7L406.7 504.1L421.0 509.3L419.0 516.6L425.4 520.4L425.4 523.1L427.1 524.4L427.9 522.9L431.2 522.1L432.9 519.7L439.4 519.6L440.5 521.0L439.8 522.5L440.7 527.3L443.3 529.6L438.6 536.8L436.4 542.0L436.5 546.9L432.0 552.2L430.7 557.4L427.5 558.0L423.2 556.8L420.6 558.4L415.7 554.5L403.1 553.9L409.0 543.8L406.0 538.8L401.9 538.7L399.9 536.6L397.0 536.6L387.4 540.6L383.8 538.7L379.7 541.0L377.6 544.2L372.6 546.2L368.9 554.6L365.2 557.1L361.1 556.2L356.4 557.0L351.5 559.4L348.3 563.2L343.3 564.6L340.5 568.3L341.3 570.9L340.6 575.4L336.2 579.0L334.1 576.8L332.6 569.1L325.8 561.5L325.2 555.7L326.6 547.2L327.8 545.9L327.7 543.3L325.6 541.1L327.7 538.4L330.5 538.5L330.6 530.0L333.9 526.2L335.9 526.6L341.6 524.0L350.9 524.1L352.5 522.7L354.2 522.9L354.5 520.7L358.4 517.2L356.7 512.5L356.9 509.5L363.2 508.6L364.4 503.3L368.2 501.7L371.1 498.5L373.5 499.4L374.6 497.9L379.2 500.4L383.0 501.0L386.5 496.7L386.1 492.5L387.4 490.1L390.3 488.6L391.8 493.4L395.9 493.8L395.9 488.0L401.1 489.1L403.8 482.7L406.7 482.1L411.1 485.8Z"/><path data-n="35" fill="#f8f4eb" stroke="none" d="M543.4 508.8L545.0 508.7L543.8 513.0L546.6 515.4L554.8 513.8L555.7 512.7L558.2 513.2L560.7 510.2L563.1 510.3L563.7 508.8L569.7 511.9L574.8 506.0L583.5 510.1L587.6 510.5L589.5 508.4L593.4 508.5L596.3 509.6L598.3 512.8L600.1 512.7L592.6 527.0L594.8 528.7L593.6 533.6L587.6 535.3L582.7 535.0L582.0 536.7L574.1 538.6L573.3 539.8L573.0 548.4L569.3 553.9L571.7 556.2L570.6 558.1L572.1 560.7L580.0 562.9L581.1 565.9L580.3 567.1L576.5 567.3L572.7 564.8L570.0 564.5L564.3 560.3L561.2 562.8L558.0 561.5L552.4 562.7L552.5 565.8L550.9 568.9L554.5 577.6L552.4 582.1L548.7 582.1L546.4 580.8L544.1 578.7L544.4 575.7L535.8 574.0L536.0 568.3L530.7 563.5L531.0 560.2L533.8 557.3L533.6 550.3L531.5 549.5L533.0 543.3L532.9 539.7L520.5 538.8L520.3 535.6L518.6 534.7L521.2 527.0L521.6 521.4L526.4 523.6L526.2 520.4L532.3 513.0L543.4 508.8Z"/><path data-n="24" fill="#f8f4eb" stroke="none" d="M620.9 510.4L621.7 510.4L620.1 508.9L622.6 506.5L627.9 505.8L634.2 512.5L636.4 508.5L639.0 508.7L645.7 515.0L648.7 515.7L652.2 513.5L655.9 516.9L658.0 517.2L658.2 518.3L660.1 517.6L661.3 518.4L664.7 516.6L668.3 517.1L671.5 519.9L673.6 518.7L670.9 521.3L667.9 520.5L668.3 524.0L665.7 527.0L666.7 532.0L666.0 534.0L664.0 533.7L665.0 537.5L658.4 540.1L657.9 545.4L659.2 550.1L654.3 554.0L654.4 556.8L652.2 561.8L650.0 562.3L647.4 561.0L642.4 562.3L639.0 556.5L637.5 557.1L635.2 548.7L633.7 549.7L627.6 549.4L624.7 555.3L619.2 554.3L614.7 546.9L615.0 544.8L622.5 542.8L623.7 545.2L632.6 542.3L632.1 537.6L636.5 536.8L637.6 535.0L635.5 533.7L633.9 526.9L630.2 525.1L623.9 525.2L625.2 522.6L618.4 519.9L618.7 512.1L620.9 510.4ZM650.1 530.3L649.1 529.7L649.5 527.1L646.6 527.1L646.4 530.9L644.0 530.0L641.7 530.9L644.1 536.7L642.1 540.9L646.4 542.5L651.1 542.1L650.6 537.0L654.0 536.2L655.2 534.3L649.3 534.0L650.1 530.3Z"/><path data-n="26" fill="url(#schatch)" stroke="none" d="M600.1 512.7L603.1 510.6L607.8 512.7L610.3 507.7L616.5 512.5L620.9 510.4L618.7 512.1L618.4 519.9L625.2 522.6L623.9 525.2L630.2 525.1L633.9 526.9L635.5 533.7L637.6 535.0L636.5 536.8L632.1 537.6L632.6 542.3L623.7 545.2L622.5 542.8L615.0 544.8L614.7 546.9L619.2 554.3L624.7 555.3L627.6 549.4L633.7 549.7L635.2 548.7L637.5 557.1L639.0 556.5L642.4 562.3L640.7 566.4L642.6 570.1L639.9 580.9L636.7 579.1L631.9 581.1L629.4 585.9L627.5 586.9L623.0 584.6L621.9 583.0L618.1 582.9L613.2 580.6L611.3 578.5L609.4 577.1L607.4 570.9L608.0 565.0L604.7 563.9L604.0 562.5L601.8 563.0L597.5 567.9L591.6 569.4L589.6 570.9L588.5 570.7L588.1 568.8L581.1 565.9L580.0 562.9L572.1 560.7L570.6 558.1L571.7 556.2L569.3 553.9L573.0 548.4L573.3 539.8L574.1 538.6L582.0 536.7L582.7 535.0L587.6 535.3L593.6 533.6L594.8 528.7L592.6 527.0L600.1 512.7Z"/><path data-n="27" fill="#f8f4eb" stroke="none" d="M687.7 517.9L690.1 518.5L691.0 521.3L687.3 525.6L687.4 530.2L690.7 533.7L692.0 533.0L693.1 534.2L689.4 536.9L686.0 537.5L685.1 539.4L686.4 542.4L685.5 543.8L686.9 546.5L691.7 546.5L693.7 547.8L692.8 552.4L693.7 554.3L691.8 558.2L688.7 566.2L691.1 570.6L691.2 575.6L687.3 578.2L686.9 579.8L689.4 583.6L688.9 586.6L690.5 589.8L689.6 593.4L682.3 592.9L678.8 594.8L674.5 590.1L669.9 591.9L668.1 591.0L667.7 588.8L662.8 590.6L657.3 587.5L655.7 588.7L653.7 587.1L649.9 587.2L647.1 586.2L648.0 585.3L646.2 583.2L639.9 580.9L642.6 570.1L640.7 566.4L642.4 562.3L647.4 561.0L650.0 562.3L652.2 561.8L654.4 556.8L654.3 554.0L659.2 550.1L657.9 545.4L658.4 540.1L665.0 537.5L664.0 533.7L666.0 534.0L666.7 532.0L665.7 527.0L668.3 524.0L667.9 520.5L670.9 521.3L673.6 518.7L676.3 515.0L683.9 511.5L686.8 507.4L687.4 509.2L684.8 511.8L684.8 514.6L687.7 517.9Z"/><path data-n="47" fill="#f8f4eb" stroke="none" d="M326.6 547.2L325.2 555.7L325.8 561.5L332.6 569.1L334.1 576.8L336.2 579.0L340.6 575.4L341.3 570.9L340.5 568.3L343.3 564.6L348.3 563.2L351.5 559.4L356.4 557.0L361.1 556.2L365.2 557.1L367.2 560.8L363.5 562.2L362.0 564.3L361.7 580.3L362.0 581.1L367.7 580.4L365.9 587.4L353.6 587.8L351.6 595.2L353.3 601.3L352.1 601.3L349.3 601.8L346.5 600.0L340.8 599.0L340.2 595.2L335.8 593.1L337.7 587.7L334.1 582.9L332.6 582.7L325.6 577.0L323.8 583.3L319.1 577.4L310.9 579.4L309.1 592.2L304.0 594.1L304.6 598.9L303.2 601.1L303.0 606.0L306.5 612.1L303.5 622.6L305.5 633.6L304.9 635.4L293.3 634.3L290.3 636.0L289.7 632.1L291.9 627.4L290.0 625.4L289.6 622.9L277.7 621.5L277.9 613.5L279.1 612.2L277.9 610.4L281.1 606.2L280.2 604.0L276.3 603.5L272.9 600.3L274.8 600.1L275.5 592.9L281.3 592.7L283.0 589.1L281.8 581.0L279.1 579.8L279.4 578.3L280.5 578.6L281.8 573.3L282.7 573.2L282.2 569.6L280.4 568.3L277.0 568.1L273.1 570.3L270.8 572.9L270.7 576.7L268.9 578.5L263.3 575.9L262.8 574.7L265.4 569.8L265.8 562.8L264.6 561.3L261.5 560.5L257.8 564.5L252.9 565.5L247.6 559.5L257.3 552.1L260.5 555.7L267.3 556.1L279.0 552.3L278.8 550.3L280.5 549.2L275.1 542.6L276.4 536.5L284.9 535.0L283.5 527.0L291.5 528.3L292.7 530.5L298.7 529.3L298.8 533.2L307.0 531.1L310.4 540.8L317.2 541.4L317.5 542.2L321.5 541.4L322.9 542.6L323.6 547.0L326.6 547.2Z"/><path data-n="36" fill="#f8f4eb" stroke="none" d="M479.7 535.0L494.7 528.8L498.8 524.9L499.4 523.0L515.5 527.9L516.4 524.9L521.2 527.0L518.6 534.7L520.3 535.6L520.5 538.8L532.9 539.7L533.0 543.3L523.6 547.0L521.3 546.3L517.6 550.9L513.0 546.8L510.9 552.5L507.8 553.4L503.8 551.9L503.0 555.7L500.9 556.0L501.0 558.1L494.7 560.3L495.3 558.5L492.7 554.3L486.0 555.0L482.1 556.9L479.4 554.8L469.4 553.1L468.3 550.2L462.7 546.5L469.9 539.9L476.2 541.8L477.5 541.2L479.1 539.7L479.7 535.0Z"/><path data-n="49" fill="#f8f4eb" stroke="none" d="M443.3 529.6L447.8 529.2L451.9 533.4L454.5 528.2L458.0 525.2L459.4 526.7L464.7 527.1L467.6 531.3L468.9 530.2L473.2 530.8L479.7 535.0L479.1 539.7L477.5 541.2L476.2 541.8L469.9 539.9L462.7 546.5L468.3 550.2L469.4 553.1L464.7 561.3L467.1 563.1L468.9 568.2L471.2 569.6L470.6 571.7L474.6 574.1L474.0 579.3L482.3 582.8L487.0 582.3L491.4 587.7L491.5 590.5L490.4 591.0L492.8 600.5L492.5 604.3L495.7 607.1L491.7 612.8L491.8 615.3L487.4 621.1L478.4 622.0L477.2 626.3L479.6 631.0L478.8 637.2L476.3 638.3L474.0 642.0L469.9 638.7L470.3 637.9L468.2 637.6L468.8 635.3L466.9 633.8L469.0 630.5L467.6 628.9L470.7 627.4L469.6 623.6L462.9 622.0L461.7 623.3L454.3 618.6L445.0 609.9L449.1 606.6L450.0 604.2L448.2 598.8L453.4 596.8L444.2 587.8L442.2 589.6L441.5 593.5L435.7 594.3L431.0 591.7L427.8 594.7L427.2 596.8L424.8 598.2L423.9 596.8L423.1 598.7L415.6 599.5L413.6 597.1L416.7 590.1L418.6 588.8L417.3 579.7L414.7 579.9L413.1 586.6L410.1 589.1L403.5 591.2L397.0 587.8L395.0 585.4L395.7 584.1L394.2 581.9L390.7 579.3L385.7 578.1L389.1 568.8L397.5 565.9L399.6 562.2L400.0 557.5L403.1 553.9L415.7 554.5L420.6 558.4L423.2 556.8L427.5 558.0L430.7 557.4L432.0 552.2L436.5 546.9L436.4 542.0L438.6 536.8L443.3 529.6Z"/><path data-n="51" fill="#f8f4eb" stroke="none" d="M403.1 553.9L400.0 557.5L399.6 562.2L397.5 565.9L389.1 568.8L385.7 578.1L390.7 579.3L394.2 581.9L395.7 584.1L395.0 585.4L397.0 587.8L396.5 594.1L395.2 594.7L397.0 595.6L398.8 599.5L398.3 606.1L389.3 614.3L391.4 617.4L390.6 621.0L382.0 623.1L380.1 622.0L370.7 622.0L370.1 620.2L363.3 614.2L359.5 616.5L359.4 621.2L358.7 620.8L353.7 613.4L358.8 612.2L361.3 609.4L361.6 610.4L363.8 610.2L363.9 608.0L369.9 604.2L369.2 601.6L370.4 595.1L372.7 592.3L369.2 587.5L365.9 587.4L367.7 580.4L362.0 581.1L361.7 580.3L362.0 564.3L363.5 562.2L367.2 560.8L365.2 557.1L368.9 554.6L372.6 546.2L377.6 544.2L379.7 541.0L383.8 538.7L387.4 540.6L397.0 536.6L399.9 536.6L401.9 538.7L406.0 538.8L409.0 543.8L403.1 553.9Z"/><path data-n="25" fill="#f8f4eb" stroke="none" d="M650.1 530.3L649.3 534.0L655.2 534.3L654.0 536.2L650.6 537.0L651.1 542.1L646.4 542.5L642.1 540.9L644.1 536.7L641.7 530.9L644.0 530.0L646.4 530.9L646.6 527.1L649.5 527.1L649.1 529.7L650.1 530.3Z"/><path data-n="34" fill="#f8f4eb" stroke="none" d="M469.4 553.1L479.4 554.8L482.1 556.9L486.0 555.0L492.7 554.3L495.3 558.5L494.7 560.3L501.0 558.1L500.9 556.0L503.0 555.7L503.8 551.9L507.8 553.4L510.9 552.5L513.0 546.8L517.6 550.9L521.3 546.3L523.6 547.0L533.0 543.3L531.5 549.5L533.6 550.3L533.8 557.3L531.0 560.2L530.7 563.5L536.0 568.3L535.8 574.0L534.3 573.1L532.2 574.2L533.0 578.3L536.1 582.4L537.3 590.1L541.0 594.4L540.8 596.4L537.9 598.5L535.4 602.6L533.2 613.0L529.7 619.6L525.2 623.6L515.6 618.1L510.3 620.9L503.3 616.2L491.8 615.3L491.7 612.8L495.7 607.1L492.5 604.3L492.8 600.5L490.4 591.0L491.5 590.5L491.4 587.7L487.0 582.3L482.3 582.8L474.0 579.3L474.6 574.1L470.6 571.7L471.2 569.6L468.9 568.2L467.1 563.1L464.7 561.3L469.4 553.1Z"/><path data-n="33" fill="url(#schatch)" stroke="none" d="M581.1 565.9L588.1 568.8L588.5 570.7L589.6 570.9L591.6 569.4L597.5 567.9L601.8 563.0L604.0 562.5L604.7 563.9L608.0 565.0L607.4 570.9L609.4 577.1L611.3 578.5L609.7 583.7L607.0 585.6L608.3 586.5L604.0 593.5L605.6 597.2L601.6 600.8L596.1 598.8L595.5 595.1L590.6 594.9L584.6 584.8L581.5 584.7L579.8 585.9L579.6 587.6L581.2 591.2L580.7 594.9L584.5 598.7L585.0 602.9L583.4 606.3L587.6 608.2L590.7 608.1L593.0 612.0L596.6 613.4L595.2 614.6L598.4 618.5L603.4 621.0L607.4 620.9L606.6 624.4L610.1 628.9L610.5 628.1L612.3 629.9L609.9 634.6L607.5 639.4L603.4 642.8L604.1 644.0L603.2 644.9L606.3 648.6L606.3 649.9L603.0 652.1L599.5 647.7L595.5 648.9L591.5 645.9L584.6 645.0L577.0 641.7L575.9 632.2L569.8 631.4L570.5 624.1L560.6 622.2L554.1 622.5L547.6 611.5L540.7 617.7L538.1 616.8L537.9 598.5L540.8 596.4L541.0 594.4L537.3 590.1L536.1 582.4L533.0 578.3L532.2 574.2L534.3 573.1L535.8 574.0L544.4 575.7L544.1 578.7L546.4 580.8L548.7 582.1L552.4 582.1L554.5 577.6L550.9 568.9L552.5 565.8L552.4 562.7L558.0 561.5L561.2 562.8L564.3 560.3L570.0 564.5L572.7 564.8L576.5 567.3L580.3 567.1L581.1 565.9Z"/><path data-n="53" fill="#f8f4eb" stroke="none" d="M332.6 582.7L334.1 582.9L337.7 587.7L335.8 593.1L340.2 595.2L340.8 599.0L346.5 600.0L349.3 601.8L352.1 601.3L352.5 603.0L350.8 605.5L358.2 606.6L361.3 609.4L358.8 612.2L353.7 613.4L358.7 620.8L359.4 621.2L359.5 616.5L363.3 614.2L370.1 620.2L370.7 622.0L380.1 622.0L382.0 623.1L381.3 625.3L384.8 628.3L385.2 630.1L379.7 633.8L373.0 634.5L372.7 641.4L375.6 642.8L384.8 642.8L390.6 647.0L386.1 651.2L387.3 655.9L381.8 662.1L376.8 661.2L373.4 658.4L368.4 660.5L366.5 665.8L362.2 664.0L357.7 664.0L350.2 664.1L345.4 662.1L341.2 655.2L337.8 655.2L333.5 644.3L327.1 639.7L324.2 641.8L323.2 642.1L322.9 641.0L322.2 642.4L318.1 643.0L314.1 646.6L309.7 645.0L308.2 637.2L304.9 635.4L305.5 633.6L303.5 622.6L306.5 612.1L303.0 606.0L303.2 601.1L304.6 598.9L304.0 594.1L309.1 592.2L310.9 579.4L319.1 577.4L323.8 583.3L325.6 577.0L332.6 582.7Z"/><path data-n="50" fill="#f8f4eb" stroke="none" d="M417.3 579.7L418.6 588.8L416.7 590.1L413.6 597.1L415.6 599.5L423.1 598.7L423.9 596.8L424.8 598.2L427.2 596.8L427.8 594.7L431.0 591.7L435.7 594.3L441.5 593.5L442.2 589.6L444.2 587.8L453.4 596.8L448.2 598.8L450.0 604.2L449.1 606.6L445.0 609.9L454.3 618.6L461.7 623.3L462.9 622.0L469.6 623.6L470.7 627.4L467.6 628.9L467.4 626.4L463.0 624.1L455.9 626.6L452.8 626.3L451.7 628.3L443.4 625.5L439.2 628.1L438.4 632.2L435.5 631.9L433.4 631.5L430.7 628.6L431.0 621.4L429.2 622.9L425.8 621.0L422.4 621.2L417.5 617.5L413.7 624.2L414.8 629.8L415.7 630.1L416.0 639.7L411.2 638.4L402.5 632.2L400.1 632.6L398.3 633.8L396.7 637.5L396.3 642.2L393.7 641.6L391.9 646.3L390.6 647.0L384.8 642.8L375.6 642.8L372.7 641.4L373.0 634.5L379.7 633.8L385.2 630.1L384.8 628.3L381.3 625.3L382.0 623.1L390.6 621.0L391.4 617.4L389.3 614.3L398.3 606.1L398.8 599.5L397.0 595.6L395.2 594.7L396.5 594.1L397.0 587.8L403.5 591.2L410.1 589.1L413.1 586.6L414.7 579.9L417.3 579.7Z"/><path data-n="52" fill="#f8f4eb" stroke="none" d="M365.9 587.4L369.2 587.5L372.7 592.3L370.4 595.1L369.2 601.6L369.9 604.2L363.9 608.0L363.8 610.2L361.6 610.4L361.3 609.4L358.2 606.6L350.8 605.5L352.5 603.0L352.1 601.3L353.3 601.3L351.6 595.2L353.6 587.8L365.9 587.4Z"/><path data-n="32" fill="#f8f4eb" stroke="none" d="M611.3 578.5L613.2 580.6L618.1 582.9L621.9 583.0L623.0 584.6L619.6 590.6L616.6 592.8L618.0 593.6L615.0 594.7L619.2 598.6L619.5 601.2L623.8 601.7L625.9 600.0L627.8 601.5L629.0 603.4L629.3 607.7L631.1 606.1L632.4 607.3L635.6 607.5L636.1 612.9L642.6 613.3L645.3 622.6L650.4 625.3L650.3 627.8L652.1 630.0L651.3 630.7L648.9 632.6L649.7 635.7L648.3 638.4L650.6 641.7L646.7 643.8L650.8 647.3L636.6 650.2L636.8 645.5L627.0 645.2L623.0 641.8L622.4 643.3L615.0 640.1L615.2 638.7L617.9 637.0L616.2 635.4L609.9 634.6L612.3 629.9L610.5 628.1L610.1 628.9L606.6 624.4L607.4 620.9L603.4 621.0L598.4 618.5L595.2 614.6L596.6 613.4L593.0 612.0L590.7 608.1L587.6 608.2L583.4 606.3L585.0 602.9L584.5 598.7L580.7 594.9L581.2 591.2L579.6 587.6L579.8 585.9L581.5 584.7L584.6 584.8L590.6 594.9L595.5 595.1L596.1 598.8L601.6 600.8L605.6 597.2L604.0 593.5L608.3 586.5L607.0 585.6L609.7 583.7L611.3 578.5Z"/><path data-n="28" fill="#f8f4eb" stroke="none" d="M639.9 580.9L646.2 583.2L648.0 585.3L647.1 586.2L649.9 587.2L653.7 587.1L655.7 588.7L657.3 587.5L662.8 590.6L667.7 588.8L668.1 591.0L669.9 591.9L674.5 590.1L678.8 594.8L682.3 592.9L689.6 593.4L689.5 596.3L687.9 598.6L687.9 600.2L690.7 602.7L691.0 606.7L690.3 608.6L688.6 609.3L687.5 612.8L689.7 616.1L691.7 617.0L683.8 616.1L682.0 617.6L678.8 616.6L675.1 618.0L671.2 616.2L671.1 622.2L669.9 623.4L667.7 623.3L667.7 624.3L665.8 623.4L663.0 625.4L659.2 623.0L660.8 631.0L662.5 630.5L664.5 633.9L669.3 635.8L669.0 638.0L665.1 639.2L664.7 636.5L661.0 636.2L658.7 630.7L651.3 630.7L652.1 630.0L650.3 627.8L650.4 625.3L645.3 622.6L642.6 613.3L636.1 612.9L635.6 607.5L632.4 607.3L631.1 606.1L629.3 607.7L629.0 603.4L627.8 601.5L625.9 600.0L623.8 601.7L619.5 601.2L619.2 598.6L615.0 594.7L618.0 593.6L616.6 592.8L619.6 590.6L623.0 584.6L627.5 586.9L629.4 585.9L631.9 581.1L636.7 579.1L639.9 580.9Z"/><path data-n="61" fill="#f8f4eb" stroke="none" d="M529.7 619.6L533.2 613.0L535.4 602.6L537.9 598.5L538.1 616.8L540.7 617.7L547.6 611.5L554.1 622.5L560.6 622.2L570.5 624.1L569.8 631.4L575.9 632.2L577.0 641.7L584.6 645.0L591.5 645.9L595.5 648.9L599.5 647.7L603.0 652.1L602.2 654.7L603.8 657.2L607.7 658.8L613.3 657.0L615.1 660.3L615.1 665.2L611.5 674.6L614.4 676.1L618.8 675.5L624.2 676.7L627.2 673.5L629.0 673.3L632.6 675.3L628.4 682.6L626.7 682.3L625.8 686.0L620.7 690.2L616.9 689.5L613.2 685.8L607.4 687.7L606.6 690.6L613.3 695.4L613.1 696.6L604.0 707.7L600.5 705.6L601.2 702.4L598.9 700.6L595.0 704.0L589.8 702.9L587.3 700.7L587.3 695.9L578.5 693.4L577.9 688.6L584.8 685.8L585.7 684.2L590.7 684.8L592.7 683.3L593.9 676.3L590.8 674.1L590.9 669.2L588.0 669.6L586.8 666.5L580.5 662.9L577.2 667.7L576.7 672.8L575.4 674.4L573.3 675.4L565.8 674.7L569.4 670.8L569.2 664.0L562.5 663.3L561.1 661.7L556.3 660.0L553.5 661.3L554.7 656.4L552.8 654.0L553.2 652.5L548.4 650.2L545.0 646.1L545.1 640.6L542.0 639.1L541.5 629.2L538.1 625.8L535.2 626.2L529.7 619.6Z"/><path data-n="59" fill="url(#schatch)" stroke="none" d="M422.4 621.2L425.8 621.0L429.2 622.9L431.0 621.4L430.7 628.6L433.4 631.5L435.5 631.9L438.4 632.2L439.2 628.1L443.4 625.5L451.7 628.3L452.8 626.3L455.9 626.6L463.0 624.1L467.4 626.4L467.6 628.9L469.0 630.5L466.9 633.8L468.8 635.3L468.2 637.6L470.3 637.9L469.9 638.7L474.0 642.0L471.0 645.7L470.8 650.4L478.2 654.1L476.3 662.3L480.6 664.3L484.7 664.5L486.2 663.1L490.5 664.4L488.7 672.6L490.2 675.2L488.4 678.4L490.8 681.3L489.4 690.5L493.1 690.0L494.6 688.6L499.3 688.8L500.5 691.0L505.5 692.6L507.0 695.7L511.2 697.0L501.2 701.2L490.2 697.4L482.8 696.4L480.5 700.3L479.7 700.1L479.6 697.0L475.7 695.9L474.9 697.7L473.9 697.3L472.6 702.7L468.0 703.1L466.5 701.3L466.9 697.3L469.6 696.5L471.6 692.5L473.4 692.0L473.2 690.4L461.7 690.4L461.0 686.6L456.1 687.0L461.8 684.0L461.6 679.3L457.5 675.2L453.4 678.7L446.7 677.6L445.3 681.2L447.2 684.1L444.1 685.7L439.1 686.2L431.2 684.9L426.6 682.1L426.0 683.5L423.4 683.1L423.6 681.7L418.2 678.7L418.8 676.9L417.0 669.0L419.7 665.5L419.2 658.6L415.2 657.1L412.9 662.0L405.5 658.3L404.0 658.6L401.9 662.2L397.9 660.2L395.7 660.4L387.9 665.3L383.7 664.0L381.8 662.1L387.3 655.9L386.1 651.2L390.6 647.0L391.9 646.3L393.7 641.6L396.3 642.2L396.7 637.5L398.3 633.8L400.1 632.6L402.5 632.2L411.2 638.4L416.0 639.7L415.7 630.1L414.8 629.8L413.7 624.2L417.5 617.5L422.4 621.2Z"/><path data-n="60" fill="#f8f4eb" stroke="none" d="M491.8 615.3L503.3 616.2L510.3 620.9L515.6 618.1L525.2 623.6L529.7 619.6L535.2 626.2L538.1 625.8L541.5 629.2L542.0 639.1L545.1 640.6L545.0 646.1L548.4 650.2L553.2 652.5L552.8 654.0L550.0 657.4L551.0 659.0L549.8 665.3L548.8 665.8L549.7 666.6L549.5 669.8L550.9 670.8L549.7 674.9L554.5 679.6L554.4 688.5L551.2 692.6L546.1 692.3L545.6 689.9L543.7 691.5L543.5 686.4L545.0 681.9L540.1 674.7L541.1 671.4L539.0 670.1L536.8 670.4L533.5 672.8L534.3 671.0L529.9 671.4L529.9 672.8L525.3 675.5L518.9 677.0L511.1 671.8L510.0 669.1L510.5 665.4L507.9 663.2L503.9 666.1L488.7 672.6L490.5 664.4L486.2 663.1L484.7 664.5L480.6 664.3L476.3 662.3L478.2 654.1L470.8 650.4L471.0 645.7L474.0 642.0L476.3 638.3L478.8 637.2L479.6 631.0L477.2 626.3L478.4 622.0L487.4 621.1L491.8 615.3Z"/><path data-n="29" fill="#f8f4eb" stroke="none" d="M691.7 617.0L694.4 617.0L696.4 625.9L695.2 629.3L700.1 630.4L700.8 636.8L703.5 641.6L701.2 649.6L702.8 655.9L708.1 657.8L710.4 660.0L711.0 662.2L708.8 671.1L704.0 668.5L700.4 670.6L700.6 674.2L705.1 676.6L697.1 676.4L693.0 682.4L690.3 682.2L689.0 675.7L686.9 675.3L684.5 676.7L681.8 673.5L677.4 672.7L675.4 669.9L673.5 674.2L670.3 673.3L668.0 677.6L664.7 671.4L665.3 668.2L662.9 668.2L660.8 666.7L661.6 664.6L659.3 661.6L660.5 659.9L669.7 658.3L670.6 656.2L669.7 654.7L664.6 651.0L665.5 648.8L666.7 648.6L663.9 641.6L665.2 640.8L663.2 639.5L665.1 639.2L669.0 638.0L669.3 635.8L664.5 633.9L662.5 630.5L660.8 631.0L659.2 623.0L663.0 625.4L665.8 623.4L667.7 624.3L667.7 623.3L669.9 623.4L671.1 622.2L671.2 616.2L675.1 618.0L678.8 616.6L682.0 617.6L683.8 616.1L691.7 617.0Z"/><path data-n="54" fill="#f8f4eb" stroke="none" d="M333.5 644.3L337.8 655.2L341.2 655.2L345.4 662.1L350.2 664.1L357.7 664.0L355.7 674.6L352.0 676.8L347.9 681.9L348.8 696.2L343.0 701.8L342.6 704.4L351.3 704.1L350.4 709.2L362.9 712.2L362.8 713.8L364.9 714.1L366.0 717.3L369.7 716.7L374.1 730.5L377.5 732.9L379.5 732.4L382.7 733.9L383.0 735.2L389.7 739.1L393.2 738.8L396.6 745.2L387.4 750.3L386.0 753.8L386.4 756.0L381.6 760.5L378.8 770.2L393.7 776.7L395.5 780.6L400.6 785.1L398.2 791.6L396.4 793.6L397.2 794.1L396.5 796.0L397.9 797.3L396.8 797.9L396.3 803.0L395.0 804.8L388.8 804.2L388.9 803.3L383.2 801.8L381.3 798.7L378.7 799.5L378.3 797.6L376.2 798.7L374.9 797.8L373.2 800.1L371.1 800.0L370.8 799.2L368.3 800.2L366.0 796.8L366.8 794.0L368.3 793.7L369.3 791.3L371.1 791.0L371.9 788.0L371.0 785.7L358.7 781.6L359.6 777.3L357.6 777.0L357.1 775.7L350.8 775.5L348.0 773.3L346.6 770.3L343.4 768.4L343.5 764.8L342.2 763.5L334.6 761.3L332.8 755.5L332.0 745.8L324.7 744.8L323.5 742.7L317.7 742.7L317.6 736.6L316.2 734.5L315.0 735.1L313.9 730.3L313.0 730.0L313.9 723.9L312.6 720.9L311.9 707.2L309.4 704.8L307.3 699.2L304.0 697.1L304.7 694.4L305.9 694.1L305.4 691.6L307.8 688.9L308.0 683.2L306.9 683.1L306.9 681.6L305.1 681.8L304.5 678.5L302.9 679.2L302.5 666.4L297.1 659.4L297.8 656.8L304.6 655.7L306.0 654.1L305.6 650.9L308.2 648.4L309.7 645.0L314.1 646.6L318.1 643.0L322.2 642.4L322.9 641.0L323.2 642.1L324.2 641.8L327.1 639.7L333.5 644.3Z"/><path data-n="31" fill="#f8f4eb" stroke="none" d="M665.1 639.2L663.2 639.5L665.2 640.8L663.9 641.6L666.7 648.6L665.5 648.8L664.6 651.0L661.9 650.1L658.5 650.6L657.4 647.3L650.8 647.3L646.7 643.8L650.6 641.7L648.3 638.4L649.7 635.7L648.9 632.6L651.3 630.7L658.7 630.7L661.0 636.2L664.7 636.5L665.1 639.2Z"/><path data-n="30" fill="url(#schatch)" stroke="none" d="M609.9 634.6L616.2 635.4L617.9 637.0L615.2 638.7L615.0 640.1L622.4 643.3L623.0 641.8L627.0 645.2L636.8 645.5L636.6 650.2L650.8 647.3L657.4 647.3L658.5 650.6L661.9 650.1L664.6 651.0L669.7 654.7L670.6 656.2L669.7 658.3L660.5 659.9L659.3 661.6L661.6 664.6L660.8 666.7L662.9 668.2L665.3 668.2L664.7 671.4L668.0 677.6L665.3 683.7L661.4 681.8L654.6 681.5L651.2 686.5L648.3 684.8L647.0 688.3L644.5 687.6L639.2 685.4L638.3 686.5L636.9 686.0L637.3 683.3L634.6 680.1L634.9 675.6L632.6 675.3L629.0 673.3L627.2 673.5L624.2 676.7L618.8 675.5L614.4 676.1L611.5 674.6L615.1 665.2L615.1 660.3L613.3 657.0L607.7 658.8L603.8 657.2L602.2 654.7L603.0 652.1L606.3 649.9L606.3 648.6L603.2 644.9L604.1 644.0L603.4 642.8L607.5 639.4L609.9 634.6Z"/><path data-n="58" fill="#f8f4eb" stroke="none" d="M381.8 662.1L383.7 664.0L387.9 665.3L395.7 660.4L397.9 660.2L401.9 662.2L404.0 658.6L405.5 658.3L412.9 662.0L415.2 657.1L419.2 658.6L419.7 665.5L417.0 669.0L418.8 676.9L418.2 678.7L423.6 681.7L423.4 683.1L426.0 683.5L426.6 682.1L431.2 684.9L439.1 686.2L444.1 685.7L447.2 684.1L445.3 681.2L446.7 677.6L453.4 678.7L457.5 675.2L461.6 679.3L461.8 684.0L456.1 687.0L461.0 686.6L461.7 690.4L455.8 691.3L444.5 695.6L445.2 698.1L442.7 697.5L430.7 705.9L426.6 705.9L422.7 704.4L419.6 710.4L423.4 717.1L418.3 718.3L418.2 720.4L422.5 720.0L422.3 724.5L424.1 724.1L427.8 734.2L427.4 736.0L418.4 742.6L414.0 743.7L411.3 746.7L399.6 744.8L396.6 745.2L393.2 738.8L389.7 739.1L383.0 735.2L382.7 733.9L379.5 732.4L377.5 732.9L374.1 730.5L369.7 716.7L366.0 717.3L364.9 714.1L362.8 713.8L362.9 712.2L350.4 709.2L351.3 704.1L342.6 704.4L343.0 701.8L348.8 696.2L347.9 681.9L352.0 676.8L355.7 674.6L357.7 664.0L362.2 664.0L366.5 665.8L368.4 660.5L373.4 658.4L376.8 661.2L381.8 662.1Z"/><path data-n="63" fill="url(#schatch)" stroke="none" d="M553.5 661.3L553.5 669.8L560.9 674.3L565.8 674.7L573.3 675.4L575.4 674.4L576.7 672.8L577.2 667.7L580.5 662.9L586.8 666.5L588.0 669.6L590.9 669.2L590.8 674.1L593.9 676.3L592.7 683.3L590.7 684.8L585.7 684.2L584.8 685.8L577.9 688.6L575.0 687.6L574.4 684.3L572.2 681.8L569.7 683.9L569.4 685.6L572.5 691.4L571.3 691.5L568.2 695.3L562.8 694.4L561.0 697.6L560.4 705.3L557.1 709.7L545.7 705.6L543.8 709.2L539.2 707.9L525.6 709.5L524.6 711.4L520.8 713.2L518.6 712.8L519.7 718.3L516.3 724.0L510.0 718.1L512.5 711.8L514.8 710.3L516.3 704.3L511.7 700.3L511.2 697.0L507.0 695.7L505.5 692.6L500.5 691.0L499.3 688.8L494.6 688.6L493.1 690.0L489.4 690.5L490.8 681.3L488.4 678.4L490.2 675.2L488.7 672.6L503.9 666.1L507.9 663.2L510.5 665.4L510.0 669.1L511.1 671.8L518.9 677.0L525.3 675.5L529.9 672.8L529.9 671.4L534.3 671.0L533.5 672.8L536.8 670.4L539.0 670.1L541.1 671.4L540.1 674.7L545.0 681.9L543.5 686.4L543.7 691.5L545.6 689.9L546.1 692.3L551.2 692.6L554.4 688.5L554.5 679.6L549.7 674.9L550.9 670.8L549.5 669.8L549.7 666.6L548.8 665.8L549.8 665.3L551.0 659.0L550.0 657.4L552.8 654.0L554.7 656.4L553.5 661.3Z"/><path data-n="62" fill="#f8f4eb" stroke="none" d="M565.8 674.7L560.9 674.3L553.5 669.8L553.5 661.3L556.3 660.0L561.1 661.7L562.5 663.3L569.2 664.0L569.4 670.8L565.8 674.7Z"/><path data-n="64" fill="#f8f4eb" stroke="none" d="M632.6 675.3L634.9 675.6L634.6 680.1L637.3 683.3L636.9 686.0L638.3 686.5L639.2 685.4L644.5 687.6L642.3 692.8L645.0 694.9L644.0 698.3L645.6 701.1L644.1 702.5L642.8 704.8L646.2 707.6L645.6 708.8L646.5 710.5L643.8 715.9L648.5 719.5L646.0 723.6L645.8 726.7L645.0 728.1L640.6 728.2L638.2 732.9L633.8 729.4L634.0 725.9L629.9 726.6L627.3 725.2L630.1 722.3L621.5 720.0L622.8 717.2L617.1 717.0L616.5 713.5L614.1 712.9L610.4 709.3L613.2 705.3L614.0 701.3L617.6 700.6L617.7 697.7L613.1 696.6L613.3 695.4L606.6 690.6L607.4 687.7L613.2 685.8L616.9 689.5L620.7 690.2L625.8 686.0L626.7 682.3L628.4 682.6L632.6 675.3Z"/><path data-n="67" fill="#f8f4eb" stroke="none" d="M613.1 696.6L617.7 697.7L617.6 700.6L614.0 701.3L613.2 705.3L610.4 709.3L614.1 712.9L616.5 713.5L617.1 717.0L622.8 717.2L621.5 720.0L630.1 722.3L627.3 725.2L629.9 726.6L634.0 725.9L633.8 729.4L638.2 732.9L642.9 737.3L640.6 741.3L636.5 737.7L633.9 739.9L629.7 737.7L628.6 739.6L625.9 736.5L627.7 732.9L621.0 731.7L621.5 728.2L613.9 726.8L609.2 727.3L607.9 729.5L598.6 732.2L597.0 736.4L599.3 737.0L600.9 741.5L596.6 744.5L595.6 747.8L591.4 748.0L590.1 744.8L591.5 742.5L590.1 741.0L587.2 740.9L586.3 737.0L583.9 735.1L588.5 730.9L583.0 727.1L580.1 729.2L573.7 725.8L572.1 728.7L567.4 729.3L566.0 734.1L563.8 734.7L560.4 732.8L556.7 735.9L555.7 738.3L552.7 736.2L549.3 736.7L539.4 745.0L535.6 741.5L530.0 742.1L523.9 735.1L526.1 734.3L526.5 729.9L523.4 728.6L515.2 728.4L516.3 724.0L519.7 718.3L518.6 712.8L520.8 713.2L524.6 711.4L525.6 709.5L539.2 707.9L543.8 709.2L545.7 705.6L557.1 709.7L560.4 705.3L561.0 697.6L562.8 694.4L568.2 695.3L571.3 691.5L572.5 691.4L569.4 685.6L569.7 683.9L572.2 681.8L574.4 684.3L575.0 687.6L577.9 688.6L578.5 693.4L587.3 695.9L587.3 700.7L589.8 702.9L595.0 704.0L598.9 700.6L601.2 702.4L600.5 705.6L604.0 707.7L613.1 696.6Z"/><path data-n="57" fill="#f8f4eb" stroke="none" d="M461.7 690.4L473.2 690.4L473.4 692.0L471.6 692.5L469.6 696.5L466.9 697.3L466.5 701.3L468.0 703.1L472.6 702.7L473.9 697.3L474.9 697.7L475.7 695.9L479.6 697.0L479.7 700.1L480.5 700.3L482.8 696.4L490.2 697.4L491.6 702.3L489.2 703.0L486.8 705.7L486.5 711.4L484.0 717.3L483.2 714.2L478.9 721.0L479.2 723.5L476.8 722.2L478.3 726.1L475.7 726.8L475.2 730.8L474.1 731.9L467.8 729.4L465.2 732.6L464.2 731.1L461.3 729.7L460.6 730.4L451.5 725.2L450.4 727.1L451.6 729.0L451.4 731.0L450.3 730.8L450.6 734.7L446.1 734.8L444.6 731.3L442.8 731.1L441.3 734.3L438.6 734.1L433.9 738.0L427.4 736.0L427.8 734.2L424.1 724.1L422.3 724.5L422.5 720.0L418.2 720.4L418.3 718.3L423.4 717.1L419.6 710.4L422.7 704.4L426.6 705.9L430.7 705.9L442.7 697.5L445.2 698.1L444.5 695.6L455.8 691.3L461.7 690.4Z"/><path data-n="56" fill="#f8f4eb" stroke="none" d="M490.2 697.4L501.2 701.2L511.2 697.0L511.7 700.3L516.3 704.3L514.8 710.3L512.5 711.8L510.0 718.1L516.3 724.0L515.2 728.4L523.4 728.6L526.5 729.9L526.1 734.3L523.9 735.1L530.0 742.1L526.2 746.7L523.0 745.6L521.5 748.7L519.9 759.4L517.2 760.1L515.8 759.4L515.5 747.5L507.7 745.9L505.5 744.4L504.8 741.8L502.2 745.7L501.5 751.7L499.5 751.1L501.4 757.2L497.7 774.4L495.8 775.2L494.0 773.7L489.3 773.6L487.2 779.1L487.9 779.9L481.2 779.1L480.6 777.6L482.7 771.1L479.8 771.3L480.1 770.2L477.9 769.3L478.4 767.9L477.3 765.7L467.5 760.6L465.9 753.3L464.6 752.2L461.5 752.3L457.6 754.6L454.5 754.3L452.7 749.6L450.9 749.5L450.1 747.6L446.7 746.8L445.4 743.6L443.6 742.4L438.9 742.7L440.6 738.1L436.0 738.5L433.9 738.0L438.6 734.1L441.3 734.3L442.8 731.1L444.6 731.3L446.1 734.8L450.6 734.7L450.3 730.8L451.4 731.0L451.6 729.0L450.4 727.1L451.5 725.2L460.6 730.4L461.3 729.7L464.2 731.1L465.2 732.6L467.8 729.4L474.1 731.9L475.2 730.8L475.7 726.8L478.3 726.1L476.8 722.2L479.2 723.5L478.9 721.0L483.2 714.2L484.0 717.3L486.5 711.4L486.8 705.7L489.2 703.0L491.6 702.3L490.2 697.4Z"/><path data-n="66" fill="url(#schatch)" stroke="none" d="M530.0 742.1L535.6 741.5L539.4 745.0L549.3 736.7L552.7 736.2L555.7 738.3L556.7 735.9L560.4 732.8L563.8 734.7L566.0 734.1L567.4 729.3L572.1 728.7L573.7 725.8L580.1 729.2L583.0 727.1L588.5 730.9L583.9 735.1L586.3 737.0L587.2 740.9L590.1 741.0L591.5 742.5L590.1 744.8L584.4 746.2L584.4 748.3L581.6 748.9L581.3 751.3L571.7 752.7L570.0 755.7L559.4 753.4L556.9 756.2L552.7 752.4L551.5 754.6L544.2 755.8L539.4 762.5L541.0 767.0L535.2 772.7L536.8 773.5L536.9 775.9L538.2 776.2L538.5 777.7L530.4 780.2L526.3 776.8L523.5 777.0L521.0 779.9L520.3 783.3L514.2 780.6L513.0 788.0L514.9 789.0L514.6 793.1L511.0 794.0L507.6 793.1L506.6 791.5L506.8 785.3L501.4 784.1L499.4 789.3L499.0 794.7L495.4 794.3L496.2 791.7L493.5 791.4L491.8 794.3L488.5 792.6L487.9 791.3L489.2 789.1L489.6 781.6L487.9 779.9L487.2 779.1L489.3 773.6L494.0 773.7L495.8 775.2L497.7 774.4L501.4 757.2L499.5 751.1L501.5 751.7L502.2 745.7L504.8 741.8L505.5 744.4L507.7 745.9L515.5 747.5L515.8 759.4L517.2 760.1L519.9 759.4L521.5 748.7L523.0 745.6L526.2 746.7L530.0 742.1Z"/><path data-n="65" fill="#f8f4eb" stroke="none" d="M590.1 744.8L591.4 748.0L595.6 747.8L596.6 744.5L600.9 741.5L599.3 737.0L597.0 736.4L598.6 732.2L607.9 729.5L609.2 727.3L613.9 726.8L621.5 728.2L621.0 731.7L627.7 732.9L625.9 736.5L628.6 739.6L624.1 750.0L618.2 751.1L619.5 759.7L623.9 761.4L626.0 764.4L627.0 766.5L629.4 767.9L627.8 771.7L629.0 773.0L626.3 773.8L614.6 772.1L611.8 779.7L607.3 782.2L601.8 778.9L599.2 783.7L596.9 783.3L593.5 781.0L593.8 778.9L589.7 775.4L586.5 775.1L587.5 782.0L586.8 784.2L588.3 785.0L588.0 787.5L589.4 790.1L587.2 796.1L587.2 800.1L591.8 802.9L593.7 807.1L591.5 811.6L589.7 811.9L585.0 811.1L583.5 808.1L578.1 805.8L576.7 804.9L576.1 802.2L569.9 796.4L569.2 794.2L560.0 790.8L557.8 790.4L552.3 799.1L550.4 798.3L552.6 792.4L541.4 790.5L539.7 792.5L535.8 791.4L534.6 792.7L528.4 793.2L527.4 795.3L524.0 793.5L524.4 792.5L525.1 790.1L523.0 789.4L524.2 785.1L520.3 783.3L521.0 779.9L523.5 777.0L526.3 776.8L530.4 780.2L538.5 777.7L538.2 776.2L536.9 775.9L536.8 773.5L535.2 772.7L541.0 767.0L539.4 762.5L544.2 755.8L551.5 754.6L552.7 752.4L556.9 756.2L559.4 753.4L570.0 755.7L571.7 752.7L581.3 751.3L581.6 748.9L584.4 748.3L584.4 746.2L590.1 744.8Z"/><path data-n="55" fill="#f8f4eb" stroke="none" d="M436.0 738.5L440.6 738.1L438.9 742.7L443.6 742.4L445.4 743.6L446.7 746.8L450.1 747.6L450.9 749.5L452.7 749.6L454.5 754.3L457.6 754.6L461.5 752.3L464.6 752.2L465.9 753.3L467.5 760.6L477.3 765.7L478.4 767.9L477.9 769.3L480.1 770.2L479.8 771.3L482.7 771.1L480.6 777.6L481.2 779.1L487.9 779.9L489.6 781.6L489.2 789.1L487.9 791.3L479.8 790.1L478.2 788.3L478.3 784.4L472.2 781.9L470.5 788.7L465.1 788.6L463.9 792.2L460.8 792.0L459.6 791.7L458.8 786.9L457.9 786.5L458.1 783.4L456.5 783.1L455.6 786.3L448.5 785.7L445.9 787.4L441.8 794.0L439.9 802.1L430.6 802.4L425.7 804.0L424.7 803.9L424.1 801.2L424.9 797.8L422.9 797.9L423.2 790.8L416.7 788.1L409.6 790.5L398.2 791.6L400.6 785.1L395.5 780.6L393.7 776.7L378.8 770.2L381.6 760.5L386.4 756.0L386.0 753.8L387.4 750.3L396.6 745.2L399.6 744.8L411.3 746.7L414.0 743.7L418.4 742.6L427.4 736.0L433.9 738.0L436.0 738.5Z"/><path data-n="76" fill="#f8f4eb" stroke="none" d="M629.0 773.0L630.6 773.1L634.3 769.6L637.8 771.2L641.0 770.4L643.0 772.0L645.1 771.9L650.9 767.5L653.9 769.6L655.2 767.9L657.8 769.4L659.2 767.1L655.4 764.6L657.0 762.1L659.2 762.6L666.8 767.6L666.3 768.7L671.1 770.0L672.3 767.8L678.6 770.3L678.1 771.6L683.8 774.2L683.4 775.8L682.1 780.1L676.0 778.2L673.9 778.9L669.4 777.0L670.2 774.9L668.7 773.1L666.2 774.2L665.3 776.3L663.0 774.7L655.7 774.6L653.8 773.5L653.2 774.5L654.1 775.2L651.1 776.3L656.9 778.4L656.8 787.3L659.2 789.0L660.3 792.2L665.9 793.4L668.8 792.8L672.1 797.4L675.2 796.6L676.1 797.3L675.4 805.6L670.4 808.2L665.8 807.9L664.0 812.4L665.0 815.4L664.0 816.9L656.2 822.0L655.7 820.1L652.9 820.9L652.1 819.5L653.9 813.0L648.6 809.3L645.4 804.1L646.1 802.2L648.0 802.5L651.5 798.0L650.0 795.0L648.3 795.5L645.9 799.0L642.1 796.6L641.4 805.0L640.4 803.2L630.2 809.8L624.4 805.7L623.9 804.8L625.3 803.2L622.2 801.1L618.1 803.1L616.8 800.3L619.2 796.7L614.2 795.7L612.7 794.2L609.8 788.4L609.6 784.8L607.3 782.2L611.8 779.7L614.6 772.1L626.3 773.8L629.0 773.0Z"/><path data-n="75" fill="url(#schatch)" stroke="none" d="M607.3 782.2L609.6 784.8L609.8 788.4L612.7 794.2L614.2 795.7L619.2 796.7L616.8 800.3L618.1 803.1L622.2 801.1L625.3 803.2L623.9 804.8L624.4 805.7L630.2 809.8L640.4 803.2L641.4 805.0L642.1 796.6L645.9 799.0L648.3 795.5L650.0 795.0L651.5 798.0L648.0 802.5L646.1 802.2L645.4 804.1L648.6 809.3L653.9 813.0L652.1 819.5L650.4 818.2L645.8 820.5L644.4 823.0L639.1 821.3L634.6 827.2L632.4 826.4L632.2 829.0L635.4 832.5L632.7 837.8L630.0 838.9L625.1 835.5L620.0 843.5L614.6 841.8L611.4 843.0L611.5 839.5L608.2 839.1L604.3 847.7L602.2 845.7L601.6 843.3L598.4 841.4L588.2 836.8L585.4 838.4L582.9 836.5L581.6 837.6L580.1 836.7L580.4 835.4L579.2 835.0L581.6 829.0L582.1 823.5L579.1 822.8L577.2 826.3L573.7 825.1L577.1 816.3L575.3 812.5L578.1 805.8L583.5 808.1L585.0 811.1L589.7 811.9L591.5 811.6L593.7 807.1L591.8 802.9L587.2 800.1L587.2 796.1L589.4 790.1L588.0 787.5L588.3 785.0L586.8 784.2L587.5 782.0L586.5 775.1L589.7 775.4L593.8 778.9L593.5 781.0L596.9 783.3L599.2 783.7L601.8 778.9L607.3 782.2Z"/><path data-n="90" fill="#f8f4eb" stroke="none" d="M752.5 785.9L752.6 785.9L757.9 785.5L759.2 790.8L758.4 791.9L764.6 793.7L764.9 796.2L768.2 795.1L769.7 797.9L768.9 800.6L767.4 801.1L774.1 807.6L772.6 814.0L766.9 817.4L767.0 819.2L765.7 821.5L764.2 831.4L759.5 831.5L757.1 827.7L754.2 827.8L753.3 822.1L749.9 821.4L747.7 814.6L742.7 814.1L740.5 812.8L742.0 809.3L738.2 807.2L740.1 804.8L736.0 802.3L738.9 799.8L737.6 798.1L739.0 794.7L737.8 792.1L728.5 792.6L726.9 776.1L730.5 777.3L732.8 775.9L736.7 770.4L737.1 769.8L739.5 773.4L743.3 773.5L743.0 777.2L744.1 779.7L746.8 781.9L748.1 780.7L751.5 782.7L750.1 785.1L752.5 785.9Z"/><path data-n="77" fill="#f8f4eb" stroke="none" d="M682.1 780.1L681.5 781.0L684.1 784.5L684.7 788.1L683.7 791.3L675.4 795.1L675.2 796.6L672.1 797.4L668.8 792.8L665.9 793.4L660.3 792.2L659.2 789.0L656.8 787.3L656.9 778.4L651.1 776.3L654.1 775.2L653.2 774.5L653.8 773.5L655.7 774.6L663.0 774.7L665.3 776.3L666.2 774.2L668.7 773.1L670.2 774.9L669.4 777.0L673.9 778.9L676.0 778.2L682.1 780.1Z"/><path data-n="69" fill="#f8f4eb" stroke="none" d="M478.2 788.3L479.8 790.1L487.9 791.3L488.5 792.6L487.6 796.1L483.9 795.0L481.5 796.6L480.9 800.1L477.3 802.5L479.6 805.3L480.0 807.6L476.1 808.0L472.8 813.6L471.1 821.4L472.0 829.0L469.0 831.8L469.8 837.1L468.9 838.5L465.0 839.8L464.8 846.4L461.2 847.5L462.6 856.7L465.2 858.2L464.8 859.8L462.6 860.2L461.4 863.1L457.5 865.3L455.0 864.2L454.8 861.8L451.7 859.6L447.4 869.1L443.2 868.6L443.3 867.3L438.8 862.8L437.6 855.9L432.1 854.6L433.9 848.8L429.7 848.2L427.5 845.4L424.5 844.2L423.8 841.9L427.1 833.8L417.7 829.0L414.3 822.1L410.9 823.5L410.7 820.0L409.6 818.9L410.4 818.0L405.0 817.3L404.9 815.4L403.9 815.4L404.3 811.3L401.2 809.1L401.5 807.8L397.3 807.8L396.3 803.0L396.8 797.9L397.9 797.3L396.5 796.0L397.2 794.1L396.4 793.6L398.2 791.6L409.6 790.5L416.7 788.1L423.2 790.8L422.9 797.9L424.9 797.8L424.1 801.2L424.7 803.9L425.7 804.0L430.6 802.4L439.9 802.1L441.8 794.0L445.9 787.4L448.5 785.7L455.6 786.3L456.5 783.1L458.1 783.4L457.9 786.5L458.8 786.9L459.6 791.7L460.8 792.0L463.9 792.2L465.1 788.6L470.5 788.7L472.2 781.9L478.3 784.4L478.2 788.3Z"/><path data-n="87" fill="#f8f4eb" stroke="none" d="M726.9 776.1L728.5 792.6L728.7 795.4L727.5 796.2L728.2 805.1L724.3 805.4L722.8 802.9L718.3 801.9L703.9 803.8L704.4 797.7L708.1 797.0L714.1 793.6L714.8 791.3L713.9 791.2L713.3 786.0L712.3 785.0L710.5 785.5L710.2 784.0L712.0 779.8L719.9 776.9L721.0 775.1L725.5 774.4L726.9 776.1Z"/><path data-n="68" fill="#f8f4eb" stroke="none" d="M511.4 809.8L504.2 809.3L504.6 815.2L507.3 817.6L507.4 820.6L505.0 821.6L504.5 824.2L502.4 824.8L503.8 830.6L501.6 834.3L503.2 838.1L501.7 846.2L500.9 848.0L497.7 847.8L496.2 852.3L492.6 853.1L492.1 855.8L493.6 856.6L494.0 859.9L492.7 860.6L489.8 859.6L489.1 862.0L487.6 861.8L487.2 863.3L492.7 865.1L491.0 867.8L493.8 868.8L494.9 867.4L496.7 868.2L498.7 869.6L499.3 872.0L505.7 874.6L500.4 880.4L494.0 878.9L491.9 881.7L496.3 884.3L497.1 883.6L499.0 885.4L499.2 887.5L501.9 889.3L504.9 889.0L501.5 900.1L498.6 902.8L496.9 902.2L496.1 903.8L489.7 901.2L489.8 894.9L481.6 889.9L478.5 890.4L476.9 894.3L472.5 894.6L468.3 892.2L465.4 893.3L465.9 891.2L461.9 890.1L461.3 886.2L465.4 885.6L465.4 881.5L467.3 876.0L475.1 873.6L471.6 871.9L470.6 864.7L468.3 862.7L468.4 860.9L464.8 859.8L465.2 858.2L462.6 856.7L461.2 847.5L464.8 846.4L465.0 839.8L468.9 838.5L469.8 837.1L469.0 831.8L472.0 829.0L471.1 821.4L472.8 813.6L476.1 808.0L480.0 807.6L479.6 805.3L477.3 802.5L480.9 800.1L481.5 796.6L483.9 795.0L487.6 796.1L486.6 798.6L491.6 799.9L490.7 804.9L492.7 806.7L497.9 807.6L498.0 809.8L499.1 810.1L503.5 809.1L506.1 799.2L508.6 798.8L508.2 801.1L509.2 801.6L510.4 800.3L512.7 800.9L513.2 803.4L511.4 809.8Z"/><path data-n="73" fill="#f8f4eb" stroke="none" d="M524.4 792.5L524.0 793.5L527.4 795.3L528.4 793.2L534.6 792.7L535.8 791.4L539.7 792.5L541.4 790.5L552.6 792.4L550.4 798.3L552.3 799.1L557.8 790.4L560.0 790.8L569.2 794.2L569.9 796.4L576.1 802.2L576.7 804.9L578.1 805.8L575.3 812.5L577.1 816.3L573.7 825.1L577.2 826.3L574.0 827.0L571.1 834.9L564.7 833.2L561.1 835.5L559.0 833.9L558.3 834.7L557.6 832.9L554.9 836.0L552.1 834.0L549.6 838.8L552.0 839.0L552.6 843.0L548.8 849.3L549.3 851.8L547.7 855.2L544.5 855.0L542.2 856.7L541.7 855.9L534.2 856.3L534.0 854.3L529.7 852.3L527.7 851.5L526.6 852.6L518.7 850.5L518.1 849.2L510.4 846.8L507.7 842.8L505.7 846.4L501.7 846.2L503.2 838.1L501.6 834.3L503.8 830.6L502.4 824.8L504.5 824.2L505.0 821.6L507.4 820.6L507.3 817.6L504.6 815.2L504.2 809.3L511.4 809.8L513.2 803.4L512.7 800.9L510.4 800.3L509.2 801.6L508.2 801.1L508.6 798.8L506.1 799.2L503.5 809.1L499.1 810.1L498.0 809.8L497.9 807.6L492.7 806.7L490.7 804.9L491.6 799.9L486.6 798.6L487.6 796.1L488.5 792.6L491.8 794.3L493.5 791.4L496.2 791.7L495.4 794.3L499.0 794.7L499.4 789.3L501.4 784.1L506.8 785.3L506.6 791.5L507.6 793.1L511.0 794.0L514.6 793.1L514.9 789.0L513.0 788.0L514.2 780.6L520.3 783.3L524.2 785.1L523.0 789.4L525.1 790.1L524.4 792.5Z"/><path data-n="78" fill="#f8f4eb" stroke="none" d="M684.7 788.1L693.8 792.6L694.3 796.2L696.8 798.7L695.9 801.5L692.1 802.7L691.4 805.3L692.3 820.7L695.0 824.8L702.4 829.4L703.2 829.9L704.9 827.5L712.7 832.6L711.8 834.9L708.7 836.1L707.8 837.2L705.2 837.2L704.7 840.4L701.5 841.6L700.9 845.0L702.4 846.6L697.7 850.0L697.2 851.3L698.6 852.0L700.0 850.9L699.9 852.6L702.0 855.0L700.6 858.4L699.0 858.7L691.3 850.7L688.4 851.4L683.2 849.1L681.4 846.6L677.1 848.5L674.6 846.8L673.4 849.6L669.3 848.4L665.0 852.1L657.6 855.8L649.9 866.3L648.5 870.6L643.7 869.8L644.4 867.7L639.8 866.8L637.0 863.0L633.8 861.7L632.9 859.2L630.5 858.3L630.5 856.2L634.0 854.1L625.9 852.6L626.3 849.2L621.4 848.5L622.8 846.0L620.0 843.5L625.1 835.5L630.0 838.9L632.7 837.8L635.4 832.5L632.2 829.0L632.4 826.4L634.6 827.2L639.1 821.3L644.4 823.0L645.8 820.5L650.4 818.2L652.1 819.5L652.9 820.9L655.7 820.1L656.2 822.0L664.0 816.9L665.0 815.4L664.0 812.4L665.8 807.9L670.4 808.2L675.4 805.6L676.1 797.3L675.2 796.6L675.4 795.1L683.7 791.3L684.7 788.1Z"/><path data-n="89" fill="#f8f4eb" stroke="none" d="M728.5 792.6L737.8 792.1L739.0 794.7L737.6 798.1L738.9 799.8L736.0 802.3L736.5 808.2L736.4 809.1L730.0 812.1L728.2 805.1L727.5 796.2L728.7 795.4L728.5 792.6Z"/><path data-n="86" fill="#f8f4eb" stroke="none" d="M696.8 798.7L698.6 797.5L700.2 798.3L704.4 797.7L703.9 803.8L718.3 801.9L722.8 802.9L724.3 805.4L723.8 807.5L723.7 809.1L720.3 810.0L719.7 812.2L716.2 812.5L715.2 816.8L716.5 821.3L715.4 822.4L713.0 819.7L709.5 821.3L708.5 820.4L702.3 821.4L702.4 829.4L695.0 824.8L692.3 820.7L691.4 805.3L692.1 802.7L695.9 801.5L696.8 798.7Z"/><path data-n="85" fill="#f8f4eb" stroke="none" d="M736.5 808.2L736.0 802.3L740.1 804.8L738.2 807.2L742.0 809.3L740.5 812.8L742.7 814.1L747.7 814.6L749.9 821.4L753.3 822.1L754.2 827.8L757.1 827.7L759.5 831.5L764.2 831.4L765.7 821.5L767.0 819.2L770.0 820.3L772.8 823.6L773.1 826.3L774.8 826.6L773.6 829.4L774.5 832.5L771.4 835.1L771.8 840.2L774.5 840.0L774.2 846.5L772.0 849.8L769.3 851.6L768.0 851.2L767.6 852.6L761.3 853.0L754.8 859.0L754.6 861.6L751.2 860.0L748.2 856.6L744.2 856.2L738.4 852.5L735.5 849.2L730.8 849.4L727.5 848.3L725.0 849.8L721.1 848.7L720.0 847.1L717.2 849.3L716.0 843.8L713.0 842.9L711.6 838.9L708.7 836.1L711.8 834.9L712.7 832.6L704.9 827.5L703.2 829.9L702.4 829.4L702.3 821.4L708.5 820.4L709.5 821.3L713.0 819.7L715.4 822.4L716.5 821.3L715.2 816.8L716.2 812.5L719.7 812.2L720.3 810.0L723.7 809.1L723.8 807.5L724.2 811.3L726.6 810.8L726.9 818.2L728.5 820.8L726.0 824.9L727.5 826.3L733.7 822.7L736.1 816.3L740.0 812.8L736.5 808.2Z"/><path data-n="88" fill="#f8f4eb" stroke="none" d="M728.2 805.1L730.0 812.1L736.4 809.1L736.5 808.2L740.0 812.8L736.1 816.3L733.7 822.7L727.5 826.3L726.0 824.9L728.5 820.8L726.9 818.2L726.6 810.8L724.2 811.3L723.8 807.5L724.3 805.4L728.2 805.1Z"/><path data-n="74" fill="#f8f4eb" stroke="none" d="M577.2 826.3L579.1 822.8L582.1 823.5L581.6 829.0L579.2 835.0L580.4 835.4L580.1 836.7L581.6 837.6L582.9 836.5L585.4 838.4L588.2 836.8L598.4 841.4L601.6 843.3L602.2 845.7L604.3 847.7L608.2 839.1L611.5 839.5L611.4 843.0L614.6 841.8L620.0 843.5L622.8 846.0L621.4 848.5L621.2 848.5L618.0 848.9L616.4 851.7L610.9 851.3L610.2 854.8L612.1 856.3L610.6 857.8L608.1 856.5L607.2 858.6L607.8 860.3L599.8 860.5L598.9 861.4L593.4 860.6L593.4 856.9L594.9 855.9L591.8 853.4L586.5 854.0L585.5 857.1L582.5 858.6L578.4 856.0L575.7 855.7L576.2 859.5L574.4 862.7L573.6 867.7L571.4 868.4L570.1 867.7L571.0 864.4L568.8 862.1L566.2 861.9L566.2 859.2L562.3 859.1L560.9 861.4L559.0 859.5L560.7 858.0L560.0 856.8L554.2 855.9L549.7 857.3L547.8 856.4L547.7 855.2L549.3 851.8L548.8 849.3L552.6 843.0L552.0 839.0L549.6 838.8L552.1 834.0L554.9 836.0L557.6 832.9L558.3 834.7L559.0 833.9L561.1 835.5L564.7 833.2L571.1 834.9L574.0 827.0L577.2 826.3Z"/><path data-n="72" fill="url(#schatch)" stroke="none" d="M501.7 846.2L505.7 846.4L507.7 842.8L510.4 846.8L518.1 849.2L518.7 850.5L526.6 852.6L527.7 851.5L529.7 852.3L534.0 854.3L534.2 856.3L541.7 855.9L542.2 856.7L544.5 855.0L547.7 855.2L547.8 856.4L549.7 857.3L554.2 855.9L560.0 856.8L560.7 858.0L559.0 859.5L560.9 861.4L562.3 859.1L566.2 859.2L566.2 861.9L568.8 862.1L571.0 864.4L570.1 867.7L571.4 868.4L573.6 867.7L574.4 862.7L576.2 859.5L575.7 855.7L578.4 856.0L582.5 858.6L585.5 857.1L586.5 854.0L591.8 853.4L594.9 855.9L593.4 856.9L593.4 860.6L598.9 861.4L599.8 860.5L607.8 860.3L608.0 863.1L609.1 864.0L607.8 868.0L605.4 867.4L603.6 869.2L600.7 869.2L595.5 875.3L594.7 875.0L589.0 873.6L586.1 878.7L584.9 878.0L583.3 880.7L581.9 883.3L582.4 884.4L575.3 884.2L574.0 891.4L575.5 895.5L574.6 898.6L576.8 900.2L577.9 904.1L575.7 905.7L571.2 907.4L563.4 906.9L562.2 908.3L559.4 908.7L556.7 913.8L553.5 914.1L552.8 917.2L548.6 917.8L547.0 914.6L548.3 911.2L547.7 907.8L549.1 905.9L547.6 901.7L548.6 898.8L545.4 897.3L540.9 900.1L539.0 899.6L537.6 896.3L533.4 897.2L527.7 896.6L529.4 892.0L535.4 893.8L537.4 893.6L538.5 891.8L532.8 886.6L530.7 886.9L527.2 884.9L526.3 884.0L527.3 882.9L528.4 879.6L529.9 878.8L532.8 878.7L533.3 880.8L538.4 880.9L538.8 876.0L535.5 875.9L536.5 873.1L534.0 873.4L531.9 871.8L532.3 867.7L530.5 867.3L528.7 868.6L523.8 868.0L522.6 870.1L515.2 869.0L513.9 871.2L511.3 871.2L510.8 872.2L507.3 871.4L504.7 869.3L505.0 864.6L502.1 862.3L499.1 862.3L494.0 859.9L493.6 856.6L492.1 855.8L492.6 853.1L496.2 852.3L497.7 847.8L500.9 848.0L501.7 846.2Z"/><path data-n="82" fill="#f8f4eb" stroke="none" d="M708.7 836.1L711.6 838.9L713.0 842.9L711.7 845.0L710.4 843.6L706.8 848.3L705.8 851.2L706.4 857.6L710.2 860.6L710.0 862.5L715.3 866.3L715.2 872.1L717.9 871.5L719.2 873.2L724.2 875.1L727.0 872.7L730.1 873.1L731.2 875.9L728.9 875.5L729.4 876.5L732.9 879.3L733.7 882.0L735.1 882.2L736.4 885.6L741.7 881.6L744.9 883.2L743.6 888.6L741.5 892.1L738.2 894.8L735.0 892.2L730.4 891.1L727.5 887.1L725.2 887.6L726.1 889.8L725.1 893.5L726.8 895.7L727.5 899.7L726.0 905.6L728.8 910.0L724.7 913.2L726.9 920.5L722.3 928.5L725.5 937.3L723.5 938.7L722.0 942.2L713.6 936.5L711.0 936.0L707.9 928.0L700.3 921.5L698.2 921.7L698.5 924.2L696.6 923.3L697.3 922.4L696.0 921.1L693.4 922.3L689.6 916.2L684.7 917.7L682.6 916.3L673.6 911.0L675.4 908.0L681.8 905.2L680.1 902.7L682.4 900.5L683.4 895.0L682.3 892.4L679.4 891.4L681.6 888.5L683.7 889.2L685.6 888.0L687.2 888.5L689.7 880.8L688.6 878.7L690.6 876.2L689.4 873.4L687.7 872.7L691.9 864.9L695.1 861.4L694.2 859.2L695.6 857.6L699.0 858.7L700.6 858.4L702.0 855.0L699.9 852.6L700.0 850.9L698.6 852.0L697.2 851.3L697.7 850.0L702.4 846.6L700.9 845.0L701.5 841.6L704.7 840.4L705.2 837.2L707.8 837.2L708.7 836.1Z"/><path data-n="84" fill="#f8f4eb" stroke="none" d="M779.2 855.5L775.3 851.7L772.8 852.5L773.8 859.4L777.1 856.3L780.5 858.1L783.9 856.7L785.0 860.8L780.9 864.2L778.6 864.7L776.2 863.3L773.9 864.7L774.4 868.9L771.5 871.3L776.2 874.2L773.3 877.6L773.3 882.5L771.6 882.4L771.2 879.8L769.9 879.3L767.6 885.1L773.6 891.9L773.2 893.8L769.6 897.3L775.2 899.1L774.7 901.6L778.3 904.3L776.6 907.6L777.4 908.9L773.6 909.6L769.0 906.3L768.7 904.4L761.4 900.1L759.8 900.2L758.3 904.7L755.4 905.0L748.5 900.3L745.7 895.6L741.5 892.1L743.6 888.6L744.9 883.2L741.7 881.6L736.4 885.6L735.1 882.2L733.7 882.0L732.9 879.3L729.4 876.5L728.9 875.5L731.2 875.9L730.1 873.1L727.0 872.7L724.2 875.1L719.2 873.2L717.9 871.5L715.2 872.1L715.3 866.3L710.0 862.5L710.2 860.6L706.4 857.6L705.8 851.2L706.8 848.3L710.4 843.6L711.7 845.0L713.0 842.9L716.0 843.8L717.2 849.3L720.0 847.1L721.1 848.7L725.0 849.8L727.5 848.3L730.8 849.4L735.5 849.2L738.4 852.5L744.2 856.2L748.2 856.6L751.2 860.0L754.6 861.6L754.8 859.0L761.3 853.0L767.6 852.6L768.0 851.2L769.3 851.6L772.0 849.8L774.2 846.5L774.5 840.0L776.8 839.9L780.3 841.9L783.9 840.9L785.1 842.0L784.9 843.5L778.5 847.4L781.7 852.1L779.2 855.5Z"/><path data-n="79" fill="#f8f4eb" stroke="none" d="M695.1 861.4L691.9 864.9L687.7 872.7L689.4 873.4L690.6 876.2L688.6 878.7L689.7 880.8L687.2 888.5L685.6 888.0L683.7 889.2L681.6 888.5L679.4 891.4L682.3 892.4L683.4 895.0L682.4 900.5L680.1 902.7L681.8 905.2L675.4 908.0L673.6 911.0L670.6 908.5L669.3 913.4L666.1 911.5L665.6 906.1L663.5 905.0L662.4 909.0L657.3 904.8L656.0 907.7L656.0 912.0L647.2 910.9L647.0 912.2L641.0 914.3L641.5 912.6L640.4 912.9L639.7 909.6L641.8 896.6L645.0 890.9L648.5 870.6L649.9 866.3L657.6 855.8L665.0 852.1L669.3 848.4L673.4 849.6L674.6 846.8L677.1 848.5L681.4 846.6L683.2 849.1L688.4 851.4L691.3 850.7L699.0 858.7L695.6 857.6L694.2 859.2L695.1 861.4Z"/><path data-n="70" fill="#f8f4eb" stroke="none" d="M464.8 859.8L468.4 860.9L468.3 862.7L470.6 864.7L471.6 871.9L475.1 873.6L467.3 876.0L465.4 881.5L465.4 885.6L461.3 886.2L461.9 890.1L465.9 891.2L465.4 893.3L463.3 893.3L463.2 896.1L467.3 899.9L468.3 900.1L468.6 897.7L471.9 898.3L471.5 900.7L468.9 900.4L467.1 903.8L462.7 902.4L458.5 909.5L456.4 909.5L453.9 907.8L436.9 905.5L434.9 904.1L432.8 905.5L430.2 902.2L432.9 900.4L433.0 896.9L431.5 896.8L430.5 891.7L433.4 888.3L433.4 886.1L435.0 883.8L431.2 881.1L428.5 881.8L425.8 877.6L421.5 878.2L417.8 874.3L420.6 874.8L422.4 866.9L424.7 867.4L428.3 862.8L437.4 863.6L436.1 869.9L437.8 871.0L442.5 870.4L443.2 868.6L447.4 869.1L451.7 859.6L454.8 861.8L455.0 864.2L457.5 865.3L461.4 863.1L462.6 860.2L464.8 859.8Z"/><path data-n="71" fill="#f8f4eb" stroke="none" d="M417.8 874.3L421.5 878.2L425.8 877.6L428.5 881.8L431.2 881.1L435.0 883.8L433.4 886.1L433.4 888.3L430.5 891.7L431.5 896.8L433.0 896.9L432.9 900.4L430.2 902.2L432.8 905.5L434.9 904.1L436.9 905.5L453.9 907.8L456.4 909.5L458.5 909.5L458.0 911.4L460.3 913.3L459.5 915.2L464.8 917.5L460.6 934.1L468.5 937.0L468.2 940.9L466.8 941.1L466.6 945.9L470.9 949.5L470.2 951.3L473.8 953.0L472.1 957.4L469.8 957.6L467.9 956.3L463.8 962.6L462.7 962.7L461.2 962.2L460.8 960.0L456.8 957.9L456.9 956.6L452.0 955.3L452.6 951.4L449.7 948.1L447.9 948.3L441.8 945.7L441.2 949.9L438.4 950.1L435.2 949.0L432.2 952.6L430.5 950.9L429.7 951.8L423.1 950.7L422.0 952.6L416.9 950.0L414.0 947.9L417.1 939.8L414.4 937.3L417.7 934.0L413.4 931.2L406.2 931.2L405.5 930.0L406.7 928.8L404.7 926.8L408.6 922.4L410.4 924.5L414.5 926.4L416.7 921.3L415.5 920.4L416.5 917.5L420.7 914.1L418.3 912.9L417.4 913.8L412.9 912.9L412.9 908.3L418.5 909.4L419.7 906.4L414.1 903.7L414.6 899.5L418.2 899.1L419.8 897.6L420.2 899.2L424.6 899.9L424.9 894.3L423.1 892.2L426.8 893.3L430.5 888.3L426.4 884.9L422.5 892.2L420.0 893.5L419.1 895.5L417.3 895.5L414.7 894.4L418.0 890.3L416.9 886.1L412.2 886.3L406.4 884.3L407.5 881.0L408.1 878.9L413.0 877.4L415.3 874.4L417.8 874.3Z"/><path data-n="83" fill="url(#schatch)" stroke="none" d="M741.5 892.1L745.7 895.6L748.5 900.3L755.4 905.0L758.3 904.7L759.8 900.2L761.4 900.1L768.7 904.4L769.0 906.3L773.6 909.6L777.4 908.9L776.6 907.6L778.3 904.3L778.6 906.3L783.6 911.5L781.8 913.6L777.8 915.3L777.1 917.7L778.4 918.9L783.5 918.2L784.3 919.4L783.1 924.5L779.6 927.6L777.4 926.0L773.8 928.0L771.8 924.5L767.7 927.2L769.0 930.9L768.7 936.1L766.9 939.4L762.6 942.3L760.8 942.0L756.5 937.3L754.5 937.5L752.2 941.6L755.2 947.3L752.6 947.9L744.6 945.9L740.8 948.2L738.0 946.9L734.8 949.0L731.7 946.6L731.8 941.8L725.5 937.3L722.3 928.5L726.9 920.5L724.7 913.2L728.8 910.0L726.0 905.6L727.5 899.7L726.8 895.7L725.1 893.5L726.1 889.8L725.2 887.6L727.5 887.1L730.4 891.1L735.0 892.2L738.2 894.8L741.5 892.1Z"/><path data-n="80" fill="#f8f4eb" stroke="none" d="M673.6 911.0L682.6 916.3L681.0 916.5L680.1 918.0L677.8 917.9L676.5 934.5L672.2 942.9L675.0 944.1L677.6 943.3L680.5 946.0L681.6 949.9L683.2 950.1L681.9 954.4L683.8 954.9L685.3 959.0L682.0 961.8L684.2 964.5L681.3 965.7L675.1 961.0L673.6 958.5L671.1 959.0L666.5 956.3L666.6 958.5L664.2 960.9L662.2 967.5L663.9 968.2L664.3 967.3L669.3 970.1L669.9 972.6L673.8 971.0L674.3 975.4L676.2 978.6L669.9 981.8L667.4 980.4L666.5 977.2L664.5 975.8L663.9 976.7L660.6 976.5L658.6 980.5L655.9 978.9L651.7 994.6L651.1 1001.4L642.8 996.0L640.4 1000.8L638.8 999.3L636.3 1001.7L635.1 1001.1L634.1 999.2L635.0 997.4L632.1 994.9L633.9 992.5L629.9 989.5L630.3 988.2L634.5 990.4L638.3 988.9L635.7 985.2L631.2 984.1L630.5 981.0L630.9 979.4L632.6 978.7L632.7 971.0L633.9 965.3L635.6 964.9L635.2 963.1L636.6 960.4L634.8 957.7L635.7 952.9L640.5 954.3L642.2 950.7L641.1 936.2L644.2 936.2L644.6 930.2L639.9 929.6L639.5 919.6L641.0 914.3L647.0 912.2L647.2 910.9L656.0 912.0L656.0 907.7L657.3 904.8L662.4 909.0L663.5 905.0L665.6 906.1L666.1 911.5L669.3 913.4L670.6 908.5L673.6 911.0Z"/><path data-n="81" fill="#f8f4eb" stroke="none" d="M682.6 916.3L684.7 917.7L689.6 916.2L693.4 922.3L696.0 921.1L697.3 922.4L696.6 923.3L698.5 924.2L698.2 921.7L700.3 921.5L707.9 928.0L711.0 936.0L713.6 936.5L722.0 942.2L723.5 938.7L725.5 937.3L731.8 941.8L731.7 946.6L734.8 949.0L734.0 951.8L735.1 952.7L731.3 955.1L725.6 955.0L725.8 958.2L724.0 958.8L722.6 961.4L719.0 957.7L715.3 964.2L711.7 966.1L710.9 965.4L712.0 964.1L710.5 962.8L708.3 963.1L705.5 961.5L706.0 960.0L703.5 955.6L700.9 959.4L702.6 962.3L697.5 965.9L695.8 964.3L697.9 960.9L699.4 961.4L700.5 959.6L698.2 957.4L695.2 958.6L693.4 957.5L693.4 964.9L692.6 966.0L689.5 966.0L687.8 968.6L686.9 967.8L687.5 965.7L684.2 964.5L682.0 961.8L685.3 959.0L683.8 954.9L681.9 954.4L683.2 950.1L681.6 949.9L680.5 946.0L677.6 943.3L675.0 944.1L672.2 942.9L676.5 934.5L677.8 917.9L680.1 918.0L681.0 916.5L682.6 916.3Z"/>
  </g>
</svg>
